<svg xmlns="http://www.w3.org/2000/svg" x="0" y="0" viewBox="0 0 1713 428">
  <path
    fill="#C6F300"
    d="M1637.8,177.4c-13.2,0-24.1,10.7-24.1,24.1s10.7,24.1,24.1,24.1c13.2,0,24.1-10.7,24.1-24.1
  S1651,177.4,1637.8,177.4z"
  />
  <path
    fill="#FFFFFF"
    d="M1599.2,232.8l-39.8,21.5c0.3,1.8,0.4,3.8,0.4,5.8c0,21.2-17.3,38.5-38.5,38.3c-21.2,0-38.5-17.3-38.3-38.5
  c0-21.2,17.3-38.5,38.5-38.3c11.3,0,21.2,4.8,28.3,12.6l37.2-19.9l-49.5-74.9c-0.4,0-0.8,0-1.2,0c-11.4,0-20.7-9.3-20.7-20.7
  c0-11.4,9.3-20.7,20.7-20.7c11.4,0,20.7,9.3,20.7,20.7c0,3.9-1.2,7.5-3,10.6l28.9,43.6c15.4-13.1,25.3-32.6,25.3-54.3
  c0-39.5-32.1-71.7-71.6-71.9c-39.5,0-71.7,32.1-71.9,71.6c0,20.9,8.9,39.8,23.3,53c-35.7,13.5-61.3,48-61.4,88.5
  c-0.1,52.2,42.4,94.8,94.6,94.9c28.9,0,55-13,72.4-33.5l14,21.1h64L1599.2,232.8z"
  />

  <path
    fill="#FFFFFF"
    d="M1043.8,99.5c-5.5,0-10.2,2-13.9,5.6c-3.7,3.8-5.5,8.5-5.5,14s1.8,10.2,5.6,13.9c3.7,3.7,8.4,5.6,13.9,5.6
  s10.2-1.8,13.9-5.5c3.8-3.7,5.6-8.4,5.6-13.9c0-5.5-2-10.2-5.8-14C1053.9,101.5,1049.3,99.5,1043.8,99.5z"
  />
  <path
    fill="#FFFFFF"
    d="M455.2,170.6c-11.6,0-22.6,2.5-32.7,7.6c-8.9,4.5-16.2,11.3-21.7,20.2c-4.8-8.1-11.5-14.7-20-19.4
  c-9.8-5.5-21.2-8.4-34.2-8.4c-9.9,0-19.5,2-28.4,5.9c-6.8,3-12.8,7.3-17.8,13v-15.8h-27.5v149.3h27.7V239
  c0-12.6,4.1-22.8,11.9-30.4c8-7.6,17.9-11.4,29.8-11.4c12.4,0,22.3,3.7,28.9,10.7c6.8,7.2,10.2,17.4,10.2,30.4v84.6h27.6V239
  c0-12.6,4.1-22.8,11.9-30.4c8-7.6,18.1-11.4,29.8-11.4c12.4,0,22.3,3.7,29.1,10.7c6.8,7.2,10.3,17.4,10.3,30.4v84.6h27.6v-92
  c0-18.1-5.9-32.7-17.4-43.7C489,176.1,473.8,170.6,455.2,170.6z"
  />
  <path
    fill="#FFFFFF"
    d="M636.1,170.6c-20.7,0-37.6,6.8-50.1,20.2v-17.1h-27.7v211H586v-78.8c12.7,13.4,29.4,20.2,50.1,20.2
  c21.1,0,38.9-7.5,53.1-22.1c14.3-14.7,21.5-33.4,21.5-55.5s-7.2-40.7-21.5-55.4C675,177.9,657,170.6,636.1,170.6z M682.4,248.1
  c0,14.5-4.6,26.8-13.7,36.6c-9,9.8-20.9,14.7-35.5,14.7c-14.1,0-26-4.8-35.1-14.5c-9.2-9.7-13.9-22.1-13.9-36.8
  c0-14.7,4.7-27,13.9-36.6c9.2-9.7,20.9-14.5,35.1-14.5c14.3,0,26.2,5,35.2,14.7C677.7,221.2,682.4,233.5,682.4,248.1z"
  />
  <path
    fill="#FFFFFF"
    d="M809,170.6c-21.3,0-39.3,7.3-53.1,21.9s-20.9,33.2-20.9,55.8c0,22.8,7.1,41.6,21.1,55.9
  c14,14.3,32.3,21.6,54.3,21.6c24.3,0,44.9-7.9,61-23.3l1.6-1.6l-15.2-19.4l-2,1.8c-12.7,11.6-27.5,17.5-44.1,17.5
  c-13,0-24.1-3.9-33-11.6c-8.4-7.2-13.5-17.5-15.3-30.5h115.2l0.3-2.1c0.3-2.6,0.5-5.6,0.5-8.9c-0.1-22.4-6.8-41-19.9-55.4
  C846.2,177.8,829.3,170.6,809,170.6z M763.8,235.2c2.1-11.4,6.8-20.8,14.3-28c8-7.6,18.2-11.5,30.5-11.5
  c11.5,0,21.3,3.8,29.1,11.4c7.2,7.1,11.6,16.5,13.4,28.1L763.8,235.2L763.8,235.2z"
  />
  <path
    fill="#FFFFFF"
    d="M976.4,170.6c-9.2,0-17.8,2.1-25.5,6.3c-5.6,3-10.6,7.1-14.9,12v-15.4h-27.5v149.3h27.6v-83.2
  c0-12.8,3.4-23.3,10.2-31c6.7-7.6,15.4-11.5,26-11.5c9,0,17.1,1.8,23.8,5.5l2.7,1.6l6.7-27.5l-1.8-0.8
  C996.6,172.3,987.3,170.6,976.4,170.6z"
  />
  <rect x="1029.9" y="173.5" fill="#FFFFFF" width="27.7" height="149.3" />
  <path
    fill="#FFFFFF"
    d="M1197.5,289.7c-8.9,6.4-18.6,9.8-28.9,9.8c-8,0-14.4-2.5-19.1-7.3c-4.7-4.8-7.1-12.6-7.1-22.6v-70.4h56.8
  l-15.3-25.5h-41.5v-45.9h-27.6v45.9h-31.5v25.5h31.5v70.7c0,18.3,4.6,32.5,13.6,41.8c9,9.3,22,14.1,38.5,14.1
  c16.5,0,31.3-5,44.4-14.8l1.8-1.3l-13.2-21.3L1197.5,289.7z"
  />
  <polygon
    fill="#FFFFFF"
    points="1348,173.5 1300.3,256.7 1245.2,173.5 1213.4,173.5 1285.7,282.5 1227.6,384.3 1258.3,384.3
  1377.3,175.7 1378.6,173.5"
  />
  <path
    fill="#FFFFFF"
    d="M153.7,104.4H120L30.4,322.8h30.8l24.1-59.6h102.4l24.2,59.6h31.5L154,105.3L153.7,104.4z M176.3,235.2H96.7
  l39.8-97.6L176.3,235.2z"
  />
</svg>
