<svg xmlns="http://www.w3.org/2000/svg" viewBox="1390.5 42 317 317"><style>path{fill:#000000}@media (prefers-color-scheme:dark){path{fill:#ffffff}}</style><path d="M1637.8,177.4c-13.2,0-24.1,10.7-24.1,24.1s10.7,24.1,24.1,24.1c13.2,0,24.1-10.7,24.1-24.1 S1651,177.4,1637.8,177.4z"/><path d="M1599.2,232.8l-39.8,21.5c0.3,1.8,0.4,3.8,0.4,5.8c0,21.2-17.3,38.5-38.5,38.3c-21.2,0-38.5-17.3-38.3-38.5 c0-21.2,17.3-38.5,38.5-38.3c11.3,0,21.2,4.8,28.3,12.6l37.2-19.9l-49.5-74.9c-0.4,0-0.8,0-1.2,0c-11.4,0-20.7-9.3-20.7-20.7 c0-11.4,9.3-20.7,20.7-20.7c11.4,0,20.7,9.3,20.7,20.7c0,3.9-1.2,7.5-3,10.6l28.9,43.6c15.4-13.1,25.3-32.6,25.3-54.3 c0-39.5-32.1-71.7-71.6-71.9c-39.5,0-71.7,32.1-71.9,71.6c0,20.9,8.9,39.8,23.3,53c-35.7,13.5-61.3,48-61.4,88.5 c-0.1,52.2,42.4,94.8,94.6,94.9c28.9,0,55-13,72.4-33.5l14,21.1h64L1599.2,232.8z"/></svg>