<svg xmlns="http://www.w3.org/2000/svg" width="300" height="100" viewBox="0 0 300 100"><path d="M136,13.67c-1.41,2.34-2.79,4.59-4.16,6.86q-8.34,13.94-16.68,27.87a22.51,22.51,0,0,0-3.07,9c0,.24-.07.42-.4.42h-7.16a1.19,1.19,0,0,1-.23-.07c.13-.7.24-1.4.39-2.1a35.29,35.29,0,0,1,4.56-10.54c4.25-7,8.55-13.9,12.83-20.85a.42.42,0,0,0,.08-.34L104.57,36.63l.05.12h8.17l.11.14c-.47.53-.9,1.08-1.39,1.57a10.27,10.27,0,0,1-7.66,3c-2,0-4,.12-5.94.2a1.38,1.38,0,0,0-.68.23L75.54,57.58a1.13,1.13,0,0,1-.62.23H66.18l-.32,0L87.42,42.23l0-.13-20.94.81c.71-.66,1.3-1.24,1.92-1.79a36.11,36.11,0,0,1,3.3-2.77,10.66,10.66,0,0,1,6-1.51c5.59-.06,11.17-.06,16.75-.06a1.77,1.77,0,0,0,1.11-.37Q107.74,27.59,120,18.79a29.12,29.12,0,0,1,7.37-4A24.49,24.49,0,0,1,136,13.67Z" /><path d="M212.4,33.28l-4.67,3.22q-5.86,4.06-11.74,8.1a.63.63,0,0,0-.27.87q3.09,9.31,6.13,18.66c.05.15.09.3.13.45-3.42.51-7.11-.34-8.37-4.62-1.14-3.9-2.1-7.86-3.14-11.8l-.28-1c-.16.27-.28.43-.37.59-1.89,3.17-3.78,6.34-5.64,9.51a1,1,0,0,1-1,.56c-2,0-4,0-6.06,0h-.55c.28-.47.51-.88.74-1.28q9.09-15.39,18.19-30.78c.86-1.45,1.71-2.91,2.68-4.28a9.57,9.57,0,0,1,8.21-4.15h1.16l.25,0q-6.68,11.27-13.3,22.47l.05.07a2.4,2.4,0,0,0,.32-.17c3-2.08,6-4.15,9.06-6.24a1.91,1.91,0,0,1,1.17-.36c2.25,0,4.5,0,6.75,0h.51Z" /><path d="M151.79,57.8H144.9l.25-3.16-.47.28a21.75,21.75,0,0,1-8.23,3A8,8,0,0,1,135,58c-2.33-.11-3.37-1.45-3-3.74a19.69,19.69,0,0,1,1.74-4.95,41.24,41.24,0,0,1,5.79-9.61,17.09,17.09,0,0,1,11-6.41,41.2,41.2,0,0,1,6.09-.25c2.22,0,4.44.26,6.66.41.18,0,.35,0,.61.09l-1.32,2.22c-2.55,4.28-5.15,8.53-7.63,12.85a24.12,24.12,0,0,0-2.92,7.9C151.9,57,151.85,57.35,151.79,57.8Zm2.65-20.46c-.93,0-1.7,0-2.46.16a11.49,11.49,0,0,0-6.62,3.71,32.56,32.56,0,0,0-5.69,8.49,5.77,5.77,0,0,0-.49,2,1,1,0,0,0,1,1.16,4.72,4.72,0,0,0,1.45-.16,11.85,11.85,0,0,0,4.47-2.51A5.09,5.09,0,0,0,147.2,49c1.46-2.29,2.88-4.61,4.31-6.92Z" /><path d="M222.08,57.79H215.2l.25-3.15-1,.61a21,21,0,0,1-7.59,2.7,8.77,8.77,0,0,1-2.4,0,2.34,2.34,0,0,1-2.17-2.49,6.44,6.44,0,0,1,.29-2.28c1.95-5.53,4.53-10.71,8.68-14.94a16.75,16.75,0,0,1,12.35-5.15c3.31,0,6.62.26,9.93.41a4.55,4.55,0,0,1,.62.11c-.95,1.57-1.87,3.1-2.78,4.64-2.07,3.46-4.18,6.9-6.18,10.41a24.3,24.3,0,0,0-2.92,8C222.19,57,222.14,57.36,222.08,57.79Zm2.55-20.28-.06-.16c-.77,0-1.53,0-2.29.15a10.89,10.89,0,0,0-6,3.09A31.45,31.45,0,0,0,209.84,50a4.59,4.59,0,0,0-.38,1.52,1.19,1.19,0,0,0,1.4,1.36,5,5,0,0,0,1.14-.2,13,13,0,0,0,4.85-2.86,3,3,0,0,0,.54-.63c1.62-2.59,3.22-5.19,4.83-7.78Z" /><path d="M125.69,57.79h-7.51c.19-.94.34-1.85.56-2.74a36.74,36.74,0,0,1,4.27-9.7q6.76-11.41,13.59-22.79c.6-1,1.22-2,1.91-2.9a9.56,9.56,0,0,1,7.82-4c.64,0,1.27,0,2,0-.08.16-.14.3-.21.43l-13.69,23c-2,3.45-4.14,6.89-6.11,10.39a20.63,20.63,0,0,0-2.5,7.93A2.37,2.37,0,0,1,125.69,57.79Z" /><path d="M184.46,33.5c-.93,1.57-1.83,3.11-2.76,4.64a.59.59,0,0,1-.48.19l-6-.17a5.53,5.53,0,0,0-2.86.57,2.69,2.69,0,0,0-.83.7,1.08,1.08,0,0,0,.17,1.64c.91.71,1.88,1.36,2.84,2a7.05,7.05,0,0,1,2.92,3.35,6.42,6.42,0,0,1-.29,4.72C175.7,55,172.74,57,168.84,57.7a31.38,31.38,0,0,1-9.18.06c-1.18-.12-2.36-.33-3.6-.5.07-.16.12-.29.18-.4.86-1.45,1.73-2.89,2.57-4.35a.72.72,0,0,1,.88-.39c2.05.24,4.11.53,6.17.63a8.64,8.64,0,0,0,2.66-.51,2.43,2.43,0,0,0,.95-.63,1.77,1.77,0,0,0,.14-2.74,19,19,0,0,0-2.05-1.63c-.5-.39-1-.74-1.52-1.13-2.25-1.76-2.89-3.82-1.66-6.83a9,9,0,0,1,4.78-4.61,15.68,15.68,0,0,1,7-1.6c2.63,0,5.26.21,7.88.34A3.24,3.24,0,0,1,184.46,33.5Z" /><path d="M174.6,81.35V72.88h2.55V86.05c-.85,0-1.69,0-2.52,0-.14,0-.3-.21-.4-.36-1.79-2.78-3.58-5.58-5.37-8.37l-.4-.59V86H166a5.46,5.46,0,0,1,0-.56q0-6,0-12.06c0-.43.12-.59.56-.57a19.45,19.45,0,0,0,2.16,0,.76.76,0,0,1,.75.43q2.43,3.88,4.87,7.75c.08.13.17.24.25.36Z" /><path d="M113.84,86V72.88l.49,0c1.6,0,3.2,0,4.8,0A3.75,3.75,0,0,1,122.72,75a4,4,0,0,1-.23,4.17,3.85,3.85,0,0,1-2.14,1.49l2.82,5.4c-.94,0-1.8,0-2.65,0-.14,0-.31-.2-.39-.35-.69-1.32-1.4-2.64-2-4a1,1,0,0,0-1.23-.73c-.14,0-.28,0-.49,0v5Zm2.52-10.89c0,1.13,0,2.25,0,3.36,0,.09.2.24.31.24.74,0,1.48,0,2.21,0A1.73,1.73,0,0,0,120.54,77a1.68,1.68,0,0,0-1.45-1.88A22.49,22.49,0,0,0,116.36,75.12Z" /><path d="M90.85,86.05c-.88,0-1.69,0-2.49,0a.55.55,0,0,1-.38-.32c-.29-.72-.58-1.44-.8-2.17a.64.64,0,0,0-.76-.52c-1.45,0-2.91,0-4.37,0a.52.52,0,0,0-.61.41c-.24.73-.53,1.45-.77,2.18a.54.54,0,0,1-.6.44c-.73,0-1.47,0-2.28,0,.34-.88.64-1.7.95-2.51,1.31-3.41,2.63-6.81,3.92-10.22a.6.6,0,0,1,.68-.48,17,17,0,0,0,1.89,0,.72.72,0,0,1,.84.57c1.49,4,3,7.94,4.52,11.91ZM84.36,75.86h-.14l-1.74,4.79h3.63Z" /><path d="M213.92,76.67c-.63-1.49-1.51-2-2.91-1.8a2.45,2.45,0,0,0-.83.31,1.48,1.48,0,0,0-.79,1.49,1.41,1.41,0,0,0,1.13,1.24c.59.16,1.21.23,1.8.38a10,10,0,0,1,1.9.6,3.75,3.75,0,0,1,1.1,6c-2,2.2-7,2-8.51-1.12a.93.93,0,0,0-.05-.1c-.64-1.31-.58-1.43.81-1.8l1.05-.26c0,.06.09.08.09.11A2.87,2.87,0,0,0,212.45,84a1.61,1.61,0,0,0,1.31-1.46A1.51,1.51,0,0,0,212.6,81c-.79-.23-1.61-.36-2.41-.53-2.32-.51-3.59-2.17-3.31-4.33a4.36,4.36,0,0,1,3.83-3.52,5.71,5.71,0,0,1,3.33.51A4,4,0,0,1,216.16,76Z" /><path d="M188.36,72.87l.45,0c2.41,0,4.81,0,7.22,0,.43,0,.59.12.56.56,0,.59,0,1.19,0,1.84h-5.66v3H196v2.29h-5.11c0,1,0,1.91,0,2.83,0,.09.3.24.45.24,1.53,0,3.06,0,4.59,0h.6V86h-8.18Z" /><path d="M142,86H133.6V72.88h2.51V83.6H142Z" /><path d="M152.18,72.85h2.25c.36,0,.31.26.31.48V86h-2.56Z" /><path d="M102.63,86l-.29,0h-2.26c0-.22,0-.42,0-.62q0-6,0-12c0-.5.14-.65.63-.61a6.18,6.18,0,0,0,1.36,0c.51,0,.61.16.61.63,0,3.79,0,7.57,0,11.36Z" /><path d="M230,58.14a2.38,2.38,0,0,1-2.36-2.44,2.4,2.4,0,0,1,4.79.06A2.38,2.38,0,0,1,230,58.14Zm0-.45a1.95,1.95,0,0,0,0-3.89,1.95,1.95,0,0,0,0,3.89Z" /><path d="M231.07,55.28a.92.92,0,0,0-.93-.83h-.92V57h.46l.09-.92H230l.55.92h.56l-.56-1A.8.8,0,0,0,231.07,55.28Zm-1,.37h-.37v-.74h.37c.28,0,.46.09.46.37A.42.42,0,0,1,230.05,55.65Z" /></svg>
