<?xml version="1.0" encoding="utf-8"?>
<!-- Generator: Adobe Illustrator 26.5.0, SVG Export Plug-In . SVG Version: 6.00 Build 0)  -->
<svg version="1.1" id="a" xmlns="http://www.w3.org/2000/svg" xmlns:xlink="http://www.w3.org/1999/xlink" x="0px" y="0px"
	 viewBox="0 0 300 100" style="enable-background:new 0 0 300 100;" xml:space="preserve">
<path d="M131.6,50.6H117c-0.3-17,13.2-31,30.2-31.3s31,13.2,31.3,30.2c0,0.4,0,0.7,0,1.1h-0.7c-0.2-7.6-3.1-13.9-9.1-18.6
	c-4.1-3.2-9.3-4.9-14.5-4.6c-6.1,0.1-11.8,2.6-16,7.1C133.9,38.7,131.5,44.5,131.6,50.6z"/>
<path d="M146.4,50.6h-13.1c0.2-7.6,3.4-13.7,9.6-18c7-4.8,16.2-5,23.4-0.4c6.7,4.3,10,10.5,10.4,18.4h-0.9c0-0.6,0-1.1-0.1-1.7
	c-0.8-5.7-3.8-9.7-9.1-11.9c-2.2-0.8-4.6-1.1-7-0.8c-2.6,0.3-5.1,1.2-7.3,2.8c-3.2,2.3-5.3,5.9-5.7,9.8
	C146.4,49.4,146.4,50,146.4,50.6L146.4,50.6z"/>
<path d="M174.7,50.7h-13.2c0-2.1-1-4-2.8-5.2c-1.1-0.8-2.5-1.2-3.9-1.1c-3.3,0.2-5.8,2.9-5.9,6.2h-0.8c0-0.4,0-0.9,0.1-1.3
	c0.3-3.1,1.7-5.9,4-8c1.8-1.7,4-2.8,6.3-3.3c3.3-0.7,6.8-0.2,9.6,1.5c2.9,1.7,5.1,4.4,6,7.7C174.5,48.4,174.7,49.5,174.7,50.7
	L174.7,50.7z"/>
<path d="M214.3,71.3c0.7,0.3,1.3,0.7,1.8,1.2c0.8,0.8,1.1,1.9,1.1,3c-0.1,2.2-1.7,3.9-3.9,4.2c-0.6,0.1-1.3,0.2-1.9,0.2h-7v-16h7.4
	c0.9,0,1.9,0.2,2.7,0.6c1.9,0.9,2.7,3.1,1.9,5c-0.3,0.7-0.9,1.3-1.6,1.7L214.3,71.3L214.3,71.3z M207,77.6h5c0.6,0,1.3-0.2,1.8-0.7
	c0.9-0.8,1.1-2.2,0.3-3.2c-0.6-0.8-1.5-1.3-2.5-1.2H207V77.6z M207,70.4h4.1c0.5,0,1-0.1,1.5-0.2c1.1-0.3,1.7-1.5,1.4-2.7
	c-0.1-0.3-0.3-0.6-0.6-0.9c-0.5-0.4-1.2-0.7-1.9-0.7H207V70.4z"/>
<path d="M108.2,79.9h-2.6v-7.3h-7.4v7.3h-2.7v-16h2.7v6.4h7.4v-6.4h2.6V79.9z"/>
<path d="M132.6,72l-1.3,4.4c-0.3,1.1-0.6,2.2-1,3.2c0,0.2-0.2,0.2-0.3,0.2h-1.6c-0.1,0-0.3-0.1-0.3-0.2c-1.3-3.9-2.6-7.8-3.8-11.7
	c-1.9-5.8,0-0.1,0-0.2h1.9c0.4,0,0.7,0.2,0.8,0.6c0.8,2.3,1.5,4.7,2.3,7c0,0.1,0.1,0.2,0.1,0.3c0.3-0.9,0.5-1.7,0.8-2.6l1.5-5
	c0.1-0.2,0.1-0.3,0.4-0.3h1.3c0.2,0,0.3,0.1,0.4,0.2v0c0.8,2.5,1.6,5,2.4,7.4c0,0.1,0.1,0.2,0.1,0.3c0-0.1,0.1-0.2,0.1-0.3
	c0.8-2.4,1.6-4.9,2.4-7.3c0-0.2,0.2-0.4,0.5-0.4h1.8c0,0.1,0,0.2-0.1,0.3l-3.6,11.5c0,0.2-0.2,0.3-0.3,0.2h-1.4
	c-0.2,0-0.4-0.1-0.4-0.3l0,0c-0.8-2.4-1.6-4.8-2.4-7.2C132.7,72.3,132.7,72.2,132.6,72z"/>
<path d="M122.6,79.9h-2.3c-0.1,0-0.2-0.2-0.2-0.2c-0.1-0.4-0.1-0.8-0.2-1.2l-0.2,0.1c-0.8,0.9-1.8,1.4-3,1.6
	c-1.1,0.2-2.2,0.1-3.2-0.2c-1.9-0.6-2.9-2.6-2.3-4.5c0.3-0.9,0.9-1.6,1.7-2c0.8-0.5,1.8-0.8,2.7-0.9c1.3-0.2,2.6-0.2,3.9-0.1h0.3
	c0.1-0.6-0.1-1.3-0.3-1.8c-0.3-0.5-0.9-0.8-1.4-0.8c-0.8-0.2-1.7-0.1-2.5,0.1c-0.9,0.2-1.6,0.8-1.8,1.7c0,0,0,0.1-0.1,0.2l-2.3-0.3
	c0.1-1,0.6-1.9,1.4-2.5c0.8-0.5,1.6-0.9,2.5-1c1.3-0.2,2.6-0.2,3.9,0c1.7,0.2,3,1.6,3,3.3c0.1,1.2,0.1,2.4,0.1,3.6s0,2.3,0,3.5
	C122.4,78.7,122.5,79.3,122.6,79.9L122.6,79.9z M116.5,78.2c2-0.1,3.5-1.8,3.5-3.8c0-0.3-0.1-0.4-0.4-0.4c-0.9,0-1.8,0-2.7,0.1
	c-0.9,0-1.8,0.3-2.5,0.9c-0.6,0.4-0.8,1.1-0.7,1.7c0.1,0.6,0.6,1.1,1.2,1.3C115.5,78.2,116,78.3,116.5,78.2z"/>
<path d="M151.4,78.3c-0.5,0.6-1.1,1.1-1.8,1.4c-1.6,0.6-3.4,0.6-4.9-0.1c-1.8-0.8-2.6-2.9-1.8-4.7c0.3-0.6,0.7-1.1,1.2-1.5
	c0.9-0.6,1.9-1,3-1.1c1.3-0.2,2.7-0.2,4-0.2h0.2c0.3-1.1-0.3-2.3-1.4-2.6c-0.1,0-0.3-0.1-0.4-0.1c-0.9-0.1-1.7-0.1-2.6,0.1
	c-0.8,0.2-1.5,0.8-1.7,1.7c0,0.1-0.1,0.2-0.2,0.2l-2.1-0.3c0.1-0.5,0.2-1,0.5-1.5c0.6-0.9,1.4-1.5,2.4-1.8c1.6-0.5,3.3-0.5,4.9-0.2
	c1.7,0.2,3,1.6,3,3.3c0.1,1.4,0.1,2.9,0.1,4.4c0,1,0,2,0.1,3c0,0.5,0.1,0.9,0.2,1.4h-2.1c-0.3,0-0.4-0.1-0.4-0.3
	S151.4,78.8,151.4,78.3z M148,78.2c2-0.2,3.4-1.8,3.4-3.8c0-0.3-0.1-0.4-0.4-0.3c-1,0-2,0-3.1,0.1c-0.8,0.1-1.5,0.3-2.1,0.8
	c-0.5,0.4-0.8,1-0.7,1.6c0.1,0.7,0.5,1.2,1.2,1.4C146.9,78.2,147.4,78.3,148,78.2L148,78.2L148,78.2z"/>
<path d="M228.4,78.4c-0.3,0.3-0.6,0.6-0.9,0.8c-0.7,0.5-1.6,0.8-2.5,0.9c-1,0.1-2,0-3-0.3c-1.9-0.6-2.9-2.6-2.3-4.4
	c0.1-0.3,0.2-0.6,0.4-0.9c0.6-0.8,1.3-1.4,2.2-1.7c1.2-0.4,2.5-0.6,3.8-0.6h2.1c0.3-1.1-0.3-2.2-1.4-2.6c-0.1,0-0.2-0.1-0.4-0.1
	c-0.8-0.2-1.7-0.1-2.5,0.1c-0.9,0.2-1.6,0.8-1.8,1.8l-0.1,0.1l-2.3-0.3c0.1-0.5,0.2-1.1,0.5-1.5c0.6-1,1.6-1.7,2.8-1.9
	c1.6-0.4,3.3-0.4,4.9,0c1.4,0.3,2.4,1.5,2.5,2.9c0.1,0.6,0.1,1.3,0.1,1.9c0,1.8,0,3.6,0.1,5.3c0,0.6,0.1,1.2,0.2,1.8h-2.3
	c-0.1,0-0.2-0.1-0.2-0.2C228.6,79.2,228.5,78.8,228.4,78.4z M225.4,74.2c-0.8,0.1-1.6,0.3-2.2,0.7c-0.6,0.3-1,1-0.9,1.7
	c0.1,0.7,0.5,1.3,1.2,1.4c0.6,0.2,1.1,0.2,1.7,0.2c1.9-0.2,3.4-1.9,3.3-3.8c0-0.2-0.1-0.3-0.3-0.3C227.8,74.1,226.7,74.1,225.4,74.2
	L225.4,74.2z"/>
<path d="M177.8,72.2c-0.1-0.6-0.2-1.1-0.3-1.6c-0.1-0.4-0.5-0.7-0.9-0.8c-1.2-0.5-2.5-0.5-3.7,0c-0.6,0.2-1.1,0.8-1.3,1.5l-0.1,0.2
	v0.1l-2.3-0.3c0.1-0.8,0.4-1.6,1-2.2c0.7-0.7,1.6-1.1,2.6-1.3c1.4-0.3,2.9-0.3,4.4,0c1.5,0.3,2.6,1.5,2.8,3c0.1,1.3,0.2,2.7,0.1,4
	c0,1.2,0,2.4,0.1,3.6c0.1,0.5,0.1,1,0.2,1.5h-2.2c-0.2,0-0.3,0-0.3-0.2c0-0.4-0.1-0.8-0.2-1.2c-0.3,0.3-0.6,0.6-0.9,0.8
	c-0.7,0.5-1.6,0.8-2.5,0.9c-1,0.1-2,0-3-0.3c-1.5-0.5-2.4-1.9-2.4-3.5c0.1-1.2,0.8-2.3,1.8-2.9c0.8-0.5,1.8-0.8,2.7-0.9
	c1.3-0.2,2.6-0.2,3.9-0.2L177.8,72.2L177.8,72.2z M177.7,74.1h-0.3c-1,0-2,0-3,0.1c-0.8,0.1-1.5,0.3-2.1,0.8
	c-0.5,0.4-0.8,1.1-0.7,1.7c0.1,0.7,0.6,1.2,1.2,1.3c0.5,0.1,1.1,0.2,1.6,0.2c2-0.2,3.5-2,3.3-4C177.7,74.2,177.7,74.2,177.7,74.1
	L177.7,74.1L177.7,74.1z"/>
<path d="M249.9,79.8h-2.5v-16h2.5v9.5l0.3-0.3l5-5c0.1-0.2,0.3-0.2,0.6-0.2h2.5c-0.1,0.1-0.2,0.2-0.2,0.3c-1.2,1.3-2.4,2.6-3.7,3.8
	c-0.2,0.1-0.2,0.4-0.1,0.6c0,0,0,0,0,0c1.4,2.3,2.8,4.6,4.1,7c0.1,0.1,0.1,0.2,0.2,0.4h-2.2c-0.3,0-0.6-0.1-0.7-0.4
	c-1.1-2-2.2-3.9-3.4-5.9l-0.4,0.4c-0.6,0.7-1.2,1.3-1.8,2c-0.1,0.1-0.2,0.3-0.2,0.4v3.1L249.9,79.8L249.9,79.8z"/>
<path d="M36.9,63.8h10.9V66h-8.2v4.3h6.8v2.2h-6.8v7.3h-2.7C36.9,79.8,36.9,63.8,36.9,63.8z"/>
<path d="M64.7,76.4l2.3-0.4c0.2,0.4,0.4,0.8,0.7,1.2c0.4,0.5,1,0.8,1.6,0.8c1,0.2,2,0.2,3-0.1c0.3-0.1,0.6-0.2,0.8-0.4
	c0.5-0.4,0.6-1.1,0.2-1.7c-0.1-0.2-0.2-0.3-0.4-0.3c-0.6-0.2-1.2-0.4-1.9-0.4c-1.1-0.2-2.3-0.4-3.4-0.7c-0.8-0.2-1.4-0.7-1.9-1.3
	c-0.9-1.3-0.7-3.2,0.6-4.2c0.8-0.7,1.7-1.1,2.7-1.2c1.2-0.2,2.4-0.1,3.6,0.2c1.5,0.4,2.6,1.5,3,3c-0.7,0.2-1.4,0.3-2.2,0.4
	c-0.1,0-0.2-0.1-0.2-0.2c-0.5-1-1.5-1.6-2.6-1.6c-0.7-0.1-1.4,0-2,0.3c-0.5,0.2-0.8,0.6-0.7,1.1c0,0.5,0.3,0.9,0.8,1
	c0.6,0.2,1.2,0.3,1.9,0.4c1,0.2,2,0.3,3,0.6c1.1,0.3,1.9,1,2.4,2c0.7,1.5,0.1,3.3-1.4,4.2c-0.9,0.5-1.8,0.8-2.8,0.9
	c-1.3,0.1-2.6,0-3.8-0.3c-1.4-0.4-2.6-1.5-3.1-2.9c0-0.1-0.1-0.2-0.1-0.4C64.7,76.4,64.7,76.4,64.7,76.4z"/>
<path d="M186,79.7h-2.5v-12h2.4v1.5h0.1c0.2-0.2,0.4-0.4,0.6-0.6c1.9-1.6,4.8-1.4,6.4,0.4c0.5,0.5,0.8,1.2,0.8,1.9
	c0.1,0.7,0.1,1.3,0.1,2v6.9h-2.4v-7.4c0-0.4,0-0.8-0.1-1.2c-0.2-0.9-1-1.6-1.9-1.6c-1.8-0.2-3.4,1.2-3.6,3c0,0.1,0,0.2,0,0.4
	L186,79.7L186,79.7z"/>
<path d="M233.9,67.8h2.3v1.5c0.4-0.3,0.7-0.7,1.1-0.9c1.9-1.3,4.5-1.1,6.1,0.7c0.5,0.6,0.8,1.4,0.8,2.2c0.1,2.7,0.1,5.4,0.1,8.1v0.5
	H242v-7.7c0-0.3-0.1-0.7-0.1-1c-0.2-0.8-1-1.4-1.9-1.4c-1.8-0.2-3.4,1.1-3.6,2.9c0,0,0,0.1,0,0.1v7h-2.5L233.9,67.8L233.9,67.8z"/>
<path d="M79.7,69.8h-2.2v-1.9h2.2v-0.6c0-0.7,0-1.3,0.1-2c0-0.1,0.1-0.2,0.2-0.3c0.7-0.1,1.4-0.1,2.1-0.2c0.1,0,0.1,0,0.2,0v3H85
	v1.9h-2.8v7.1c0,0.7,0.6,1.3,1.2,1.3h2.3V80l-0.9,0.1c-0.8,0.1-1.7,0.1-2.5-0.1c-1.5-0.2-2.6-1.5-2.6-3c-0.1-1.9,0-3.7,0-5.6
	C79.7,71.4,79.7,69.8,79.7,69.8z"/>
<path d="M56.6,67.8h2.2v1.8c0.9-1.6,2.7-2.4,4.5-2v2.2h-0.9c-1.7,0-3.1,1.3-3.3,3c-0.1,0.4-0.1,0.8-0.1,1.1v5.9h-2.5
	C56.6,79.8,56.6,67.8,56.6,67.8z"/>
<path d="M159.8,79.8h-2.4v-12h2.4V79.8z"/>
<path d="M53.1,79.8h-2.5v-12h2.5V79.8z"/>
<path d="M165.9,79.8h-2.4v-12h2.4V79.8z"/>
<path d="M163.3,63.8h2.6v2.5h-2.6V63.8z"/>
<path d="M50.6,63.8h2.6v2.5h-2.6C50.6,66.3,50.6,63.8,50.6,63.8z"/>
<path d="M157.2,66.3v-2.5h2.6v2.5H157.2z"/>
<path d="M261.7,77c0.8,0,1.5,0.7,1.5,1.4s-0.6,1.4-1.5,1.4l0,0c-0.8,0-1.4-0.6-1.4-1.4C260.2,77.7,260.9,77,261.7,77z M262.9,78.4
	c0-0.7-0.5-1.2-1.2-1.2s-1.2,0.6-1.2,1.2s0.5,1.2,1.2,1.2S262.9,79.1,262.9,78.4z"/>
<path d="M261.1,77.5h0.7c0.2,0,0.5,0.1,0.5,0.3s0,0.5-0.1,0.5l0.2,0.8c-0.4,0-0.3,0-0.4-0.3c-0.1-0.4-0.1-0.4-0.6-0.4v0.7
	c-0.1,0-0.2,0-0.3,0L261.1,77.5L261.1,77.5z M261.4,77.8v0.4c0.3,0,0.5,0,0.6-0.1s0-0.2,0-0.2S261.7,77.8,261.4,77.8z"/>
</svg>
