<svg width="300" height="100" viewBox="0 0 300 100" fill="black" xmlns="http://www.w3.org/2000/svg">
<path fill-rule="evenodd" clip-rule="evenodd" d="M59.1285 35.5236H55.275V33.9508C55.5109 33.9508 55.7468 33.8721 55.9828 33.8721H65.184C65.8131 33.8721 66.049 34.1867 66.285 34.7372C69.0374 41.8937 71.8686 49.0502 74.6997 56.2066C74.7784 56.4426 74.9356 56.6785 75.1716 57.229C78.2386 49.2861 81.2271 41.6577 84.2941 33.9508H94.5963V35.5236H90.8214C90.8214 35.9955 90.7428 36.3101 90.7428 36.6246V65.2505C90.7428 66.1942 91.0574 66.5088 91.9224 66.4302C92.6297 66.3908 93.3386 66.3908 94.0458 66.4302V67.8457H80.9125V66.3515H83.5077C83.9795 66.3515 84.2155 66.1942 84.2155 65.6437V40.1635C84.2155 40.0849 84.1368 40.0849 84.0582 39.7703L83.5077 40.8713C80.2833 49.2861 77.059 57.7008 73.9133 66.1156C73.6774 66.6661 73.5201 67.1379 72.8123 67.0593C72.1045 66.9807 71.8686 66.6661 71.6327 66.037C68.4083 57.6222 65.1053 49.1288 61.8023 40.714C61.7237 40.3995 61.4878 40.1635 61.4091 39.849C61.3305 39.849 61.2518 39.9276 61.1732 39.9276C61.1732 40.2422 61.0945 40.5568 61.0945 40.95V65.0932C61.0945 66.037 61.3305 66.4302 62.2742 66.3515C63.2179 66.2729 64.2402 66.3515 65.3412 66.3515V67.7671H56.0614V66.3515C56.7687 66.3122 57.4775 66.3122 58.1848 66.3515C59.0498 66.4302 59.2071 66.1156 59.2071 65.2505V35.5236H59.1285Z" />
<path fill-rule="evenodd" clip-rule="evenodd" d="M159.083 41.1859V47.556C159.083 48.1065 159.162 48.4997 159.87 48.4997C163.487 48.421 167.105 48.421 170.722 48.2637C172.363 48.2217 173.93 47.5779 175.126 46.455C176.228 45.32 176.954 43.8741 177.207 42.313C177.46 40.7518 177.228 39.1505 176.542 37.7256C175.126 34.8945 172.531 33.9508 169.7 33.8721C166.476 33.7149 163.173 33.8721 159.948 33.7935C159.319 33.7935 159.083 34.0294 159.083 34.6586V41.1859ZM159.083 57.7795V64.6214C159.083 65.1719 159.162 65.5651 159.87 65.5651C163.644 65.4865 167.498 65.5651 171.273 65.3292C173.632 65.1719 175.834 64.3068 177.171 62.2621C177.976 61.0664 178.444 59.6763 178.527 58.2373C178.61 56.7984 178.305 55.3636 177.643 54.0833C176.385 51.3308 173.868 50.3084 171.037 50.1512C167.341 49.9152 163.645 49.9939 159.948 49.9152C159.241 49.9152 159.005 50.1512 159.005 50.8589C159.083 53.2182 159.083 55.4989 159.083 57.7795ZM157.039 32.2207C157.353 32.2207 157.668 32.142 157.982 32.142C161.757 32.142 165.611 32.0634 169.385 32.142C171.835 32.0942 174.235 32.8389 176.227 34.2654C178.823 36.2314 179.609 38.9839 179.294 42.051C179.207 43.5182 178.68 44.9252 177.782 46.0892C176.885 47.2532 175.658 48.1204 174.261 48.5783C173.868 48.7356 173.553 48.8929 172.846 49.1288C173.396 49.2861 173.711 49.4434 174.025 49.522C177.879 50.5444 180.238 53.2969 180.474 56.8358C180.789 62.1048 178.272 65.0933 174.733 66.2729C173.131 66.7954 171.463 67.0867 169.779 67.138C165.846 67.2166 161.836 67.138 157.825 67.138C157.589 67.138 157.353 67.0593 157.039 67.0593V32.2207Z" />
<path fill-rule="evenodd" clip-rule="evenodd" d="M198.483 56.6785V55.1843C198.562 54.3978 198.247 54.1619 197.461 54.1619C195.573 54.3192 193.607 54.2405 191.72 54.5551C189.807 54.8754 187.935 55.4027 186.136 56.128C185.204 56.5236 184.429 57.2161 183.931 58.0979C183.433 58.9797 183.241 60.0013 183.384 61.0038C183.397 62.0323 183.73 63.0312 184.335 63.8625C184.941 64.6937 185.79 65.3162 186.765 65.6437C188.343 66.2176 190.047 66.3525 191.695 66.034C193.343 65.7154 194.874 64.9554 196.124 63.8349C198.011 61.8689 198.562 59.2737 198.483 56.6785ZM184.327 49.0501C183.762 48.9142 183.21 48.73 182.676 48.4996C183.001 47.424 183.546 46.428 184.277 45.5749C185.008 44.7218 185.909 44.0306 186.923 43.5452C188.252 42.8689 189.709 42.4776 191.198 42.3963C192.688 42.3151 194.178 42.5456 195.573 43.0733C198.483 44.0957 199.82 46.5336 200.056 49.4434C200.292 52.6677 200.213 55.9707 200.292 59.2737V67.1379H198.405V62.8912C198.326 62.8912 198.169 62.8126 198.09 62.8126C197.854 63.1272 197.697 63.4417 197.461 63.7563C194.63 68.3176 187.866 68.7108 184.249 66.3515C180.631 63.9922 179.923 57.5435 184.799 55.027C187.326 53.7953 190.089 53.1246 192.9 53.0609L197.539 52.825C198.247 52.825 198.483 52.5891 198.405 51.8813C198.378 50.7742 198.273 49.6705 198.09 48.5783C197.461 45.5899 195.495 44.017 192.506 43.8597C188.653 43.7024 185.9 45.2753 184.327 49.0501Z" />
<path fill-rule="evenodd" clip-rule="evenodd" d="M233.4 54.0046C233.171 54.1941 232.961 54.4047 232.771 54.6338C231.277 56.2853 229.704 57.8581 228.21 59.5096C227.941 59.8482 227.777 60.2583 227.738 60.6893C227.66 62.8126 227.738 64.8573 227.738 67.0593H225.929V32.2993H227.738V57.1503C227.817 57.229 227.895 57.229 227.974 57.3076C228.289 56.9931 228.682 56.6785 228.996 56.3639C232.85 52.0386 236.703 47.7132 240.714 43.5452C241.186 43.0733 242.208 43.152 243.073 42.9947C243.152 43.0733 243.152 43.2306 243.231 43.3092C242.13 44.5675 241.029 45.7472 239.928 47.0055C238.434 48.6569 236.939 50.3084 235.367 51.8813C235.247 51.9607 235.146 52.0655 235.072 52.1883C234.998 52.311 234.951 52.4487 234.936 52.5914C234.921 52.7341 234.938 52.8784 234.985 53.0139C235.032 53.1495 235.109 53.2729 235.209 53.3755C237.804 57.0717 240.321 60.7679 242.838 64.4641C243.467 65.3292 244.017 66.1942 244.725 67.2166C243.467 67.3739 242.602 67.3739 241.815 66.1942C239.22 62.2621 236.468 58.4086 233.794 54.5551C233.682 54.3588 233.55 54.1743 233.4 54.0046Z" />
<path fill-rule="evenodd" clip-rule="evenodd" d="M205.718 43.3092V48.9715C206.301 47.9045 206.958 46.8796 207.684 45.9044C210.201 42.4442 215.313 41.5791 218.616 44.017C219.472 44.6509 220.163 45.4826 220.629 46.4412C221.094 47.3998 221.321 48.4568 221.29 49.522C221.447 55.1056 221.368 60.7679 221.368 66.3515C221.368 66.4302 221.29 66.5088 221.29 66.6661H219.638V51.3308C219.636 50.1873 219.477 49.0495 219.166 47.9492C218.144 44.7248 215.863 44.1743 213.583 44.253C208.628 44.4102 205.954 48.9715 205.797 53.4541C205.64 57.4649 205.718 61.4757 205.718 65.4864V66.6661H203.909V43.3092H205.718ZM110.875 64.8573C108.516 65.0932 106.157 65.2505 104.033 63.6777C103.16 63.1238 102.442 62.3568 101.946 61.4487C101.451 60.5407 101.195 59.5216 101.202 58.4873C101.134 57.2939 101.267 56.0976 101.595 54.9483C101.97 54.0718 102.503 53.272 103.168 52.5891C103.483 52.1959 103.797 52.1959 104.191 52.5891C107.73 56.0493 111.347 59.431 114.886 62.8912C114.965 62.9699 115.043 63.1272 115.201 63.2845C113.936 64.2058 112.436 64.751 110.875 64.8573ZM108.595 37.0965C110.718 37.0965 112.212 38.748 112.291 41.0286V41.6577C112.316 42.8847 112.025 44.0975 111.447 45.1799C110.868 46.2622 110.022 47.1779 108.988 47.8391C108.895 47.936 108.781 48.0116 108.656 48.0608C108.531 48.11 108.396 48.1316 108.262 48.1241C108.128 48.1166 107.997 48.0803 107.878 48.0175C107.758 47.9548 107.654 47.8671 107.572 47.7604C105.764 45.7943 104.663 43.671 104.82 40.9972C104.977 38.6379 106.471 37.065 108.595 37.065V37.0965ZM121.413 33.8721V42.6801H123.144C124.009 36.0741 127.941 34.8158 132.345 35.6023V65.3292C132.187 65.5651 131.952 65.8797 131.794 65.8797C130.745 65.9321 129.694 65.9058 128.649 65.801C125.188 65.1719 123.301 62.498 120.863 60.3747C122.352 58.44 123.351 56.1734 123.773 53.7687C123.869 53.1358 124.166 52.5504 124.618 52.0977C125.071 51.645 125.656 51.3487 126.289 51.2521C127.39 51.0949 127.548 50.623 127.233 49.6793H117.245V50.9848C119.211 51.0634 120.863 51.7712 121.256 53.8945C121.649 56.0179 120.706 57.5121 119.447 59.0849L109.853 49.9939C110.26 49.841 110.654 49.6569 111.033 49.4434C112.112 48.9825 113.162 48.4573 114.178 47.8705C116.459 46.4549 117.874 44.5675 117.56 41.815C117.245 39.0625 115.515 37.1751 112.763 36.3101C110.828 35.7217 108.789 35.5607 106.786 35.8382C103.247 36.2314 100.259 38.512 99.4721 41.6577C99.0737 43.1063 99.0525 44.6326 99.4104 46.0917C99.7682 47.5508 100.493 48.8941 101.517 49.9939C101.75 50.2362 101.961 50.4995 102.146 50.7803C100.607 51.5539 99.1105 52.4097 97.6634 53.344C93.338 56.3325 93.7312 62.9384 97.742 65.6123C100.494 67.4211 103.562 67.8929 106.707 67.8929C110.059 67.8744 113.336 66.8915 116.144 65.0618C116.296 64.9951 116.461 64.9673 116.626 64.9811C116.791 64.9948 116.95 65.0496 117.088 65.1404C117.906 65.9114 118.87 66.5104 119.924 66.9021C120.978 67.2939 122.099 67.4703 123.222 67.4211H142.018C142.36 67.434 142.703 67.4076 143.04 67.3424C143.276 65.9268 143.276 65.9268 142.018 65.9268C141.547 65.8875 141.073 65.8875 140.602 65.9268C139.658 66.0055 139.344 65.6909 139.344 64.7472C139.423 55.7033 139.344 46.7381 139.344 37.6942C139.344 35.4922 139.344 35.4922 141.625 35.4922C143.039 35.4061 144.44 35.8139 145.587 36.6458C146.735 37.4777 147.558 38.6821 147.916 40.0534C148.231 40.9972 148.388 41.9409 148.624 42.8059H150.275V33.8721H121.413Z" />
</svg>
