<svg width="300" height="100" viewBox="0 0 300 100" fill="none" xmlns="http://www.w3.org/2000/svg">
<mask id="mask0_8445_1624" style="mask-type:luminance" maskUnits="userSpaceOnUse" x="68" y="17" width="165" height="67">
<path d="M232.076 17H68V84H232.076V17Z" fill="white"/>
</mask>
<g mask="url(#mask1_8445_1624)">
<path fill-rule="evenodd" clip-rule="evenodd" d="M160.417 71.3771H166.703L159.852 58.2785H153.566L154.329 59.7323L150.627 66.8056H148.739L149.676 68.6241L148.236 71.3771H153.006L154.124 69.2351H159.297L160.415 71.3771H160.417ZM155.397 66.8056L156.713 64.2917L158.026 66.8056H155.397ZM78.5291 71.6862C73.0086 71.6862 70.6419 70.6454 70.6419 70.6454L68 71.6862V65.3543C68 65.3543 71.905 68.4913 77.3796 68.4913C78.9807 68.4913 79.7535 67.9672 79.7535 67.2476C79.7535 65.277 68.3816 66.0449 68.3816 59.655C68.3816 56.7885 72.4773 54.3639 77.4207 54.3639C81.7313 54.3639 84.1801 55.3854 84.1801 55.3854L86.7906 54.3639V59.7975C86.7906 59.7975 83.772 57.5492 78.4108 57.5492C76.8097 57.5492 76.0369 58.0732 76.0369 58.7953C76.0369 60.7659 88.4183 59.9617 88.4183 66.3951C88.4183 69.6746 83.4121 71.6862 78.5267 71.6862H78.5291ZM97.3946 61.0581V63.4368H105.84V66.2164H97.3946V68.5951H105.84V71.3771H89.691L91.0916 69.1505V60.5027L89.691 58.2785H105.84V61.0581H97.3946ZM146.394 58.2809V71.3771H140.441V66.2164H135.42V71.3771H128.064L129.465 69.1505V60.5027L128.064 58.2785H135.42V63.4368H140.441V58.2785H146.394V58.2809ZM224.287 71.6862C219.938 71.6862 218.076 70.8676 218.076 70.8676L215.997 71.6862V66.6994C215.997 66.6994 219.071 69.1699 223.384 69.1699C224.645 69.1699 225.253 68.7569 225.253 68.1894C225.253 66.639 216.299 67.2427 216.299 62.2124C216.299 59.9545 219.525 58.0443 223.418 58.0443C226.811 58.0443 228.741 58.8484 228.741 58.8484L230.796 58.0443V62.3235C230.796 62.3235 228.417 60.551 224.196 60.551C222.935 60.551 222.327 60.9639 222.327 61.5314C222.327 63.0842 232.076 62.4515 232.076 67.5181C232.076 70.0996 228.132 71.6862 224.287 71.6862ZM120.068 71.3771H126.357L119.508 58.2785H113.222L113.98 59.7323L110.281 66.8056H108.392L109.329 68.6241L107.89 71.3771H112.659L113.78 69.2351H118.953L120.071 71.3771H120.068ZM115.045 66.8056L116.362 64.2917L117.678 66.8056H115.048H115.045ZM186.832 69.5901L187.689 71.3771H181.927L178.534 64.2917L175.994 69.5901L176.851 71.3771H171.089L164.812 58.2785H170.574L173.967 65.3639L176.508 60.0656L175.651 58.2785H181.413L184.806 65.3639L188.201 58.2785H192.251L186.832 69.5901ZM203.297 66.2744L201.824 67.5229V71.3771H194.118L195.521 69.1505V60.5027L194.118 58.2785H201.824V64.2434L206.801 60.0511L205.68 58.2785H212.742L207.426 62.7775L214.014 71.3771H207.378L203.297 66.2744ZM121.781 78.9793V80.1047H125.77V81.4184H121.781V82.5414H125.77V83.8551H118.141L118.803 82.8022V78.7161L118.141 77.6632H125.77V78.9769H121.781V78.9793ZM194.089 78.9793V77.6656H186.457L187.119 78.7185V82.8046L186.457 83.8575H194.089V82.5438H190.099V81.4208H194.089V80.1071H190.099V78.9818H194.089V78.9793ZM136.57 82.8432H134.126L133.597 83.8527H131.344L132.022 82.5535L131.58 81.6937H132.472L134.22 78.3515L133.863 77.6632H136.833L140.069 83.8527H137.096L136.567 82.8432H136.57ZM135.971 81.6937L135.35 80.5056L134.727 81.6937H135.971ZM176.728 82.3747V77.6656H173.086L173.75 78.7185V82.6742L173.086 83.8551H181.048V82.3747H176.728ZM112.787 82.0318C112.787 79.6386 108.182 79.9357 108.182 79.2039C108.182 78.9359 108.47 78.7403 109.066 78.7403C111.061 78.7403 112.184 79.5758 112.184 79.5758V77.5545L111.213 77.9337C111.213 77.9337 110.302 77.5545 108.699 77.5545C106.861 77.5545 105.337 78.4577 105.337 79.5251C105.337 81.9014 109.566 81.6164 109.566 82.3506C109.566 82.6186 109.279 82.8167 108.682 82.8167C106.644 82.8167 105.192 81.6479 105.192 81.6479V84.0024L106.175 83.616C106.175 83.616 107.057 84.0024 109.112 84.0024C110.928 84.0024 112.79 83.2538 112.79 82.0318H112.787ZM167.524 77.6656H158.471V79.146H161.511V82.8046L160.847 83.8575H164.489V79.1484H167.524V77.668V77.6656ZM153.056 77.6656H144.005V79.146H147.043V82.8046L146.382 83.8575H150.021V79.1484H153.056V77.668V77.6656Z" />
<path fill-rule="evenodd" clip-rule="evenodd" d="M187.131 27.2224C181.13 24.3535 173.422 23.7328 173.422 23.7328C170.058 19.6226 164.373 19.0141 158.628 19.0141C158.628 19.0141 129.694 19.0768 125.193 19.0768C119.955 19.0793 119.428 17 119.428 17L112.406 30.1493H130.643C136.381 30.1493 136.671 29.5746 140.477 26.7757C144.52 23.8005 147.748 22.7258 151.569 22.7258C155.389 22.7258 157.915 23.5879 162.168 25.4716C166.421 27.3528 168.679 28.2681 171.209 27.1934C171.209 27.1934 169.217 29.8837 163.192 27.3552C157.167 24.8268 155.553 24.2883 151.892 24.2883C148.231 24.2883 144.148 26.0198 138.97 31.1878L145.14 36.1529C145.14 36.1529 143.713 38.3577 142.774 39.7656C141.837 41.1735 141.924 42.1153 142.423 42.8012C142.926 43.4894 143.556 43.801 145.841 43.801C148.125 43.801 166.43 43.7575 168.476 43.7575C170.256 43.7575 175.827 43.9217 180.176 44.7911C185.95 45.9454 182.224 50.8139 182.224 50.8139C182.224 50.8139 186.09 48.2686 189.918 42.2675C194.185 35.5757 193.135 30.0914 187.134 27.22M157.268 27.4084C157.881 27.6233 158.488 27.8479 159.091 28.087C159.007 28.2053 158.937 28.3333 158.886 28.4661C158.548 29.379 159.234 30.2459 160.427 30.3981C161.332 30.514 162.267 30.1831 162.81 29.6132L163.156 29.7533C163.274 29.8016 163.383 29.8402 163.499 29.8813C162.943 30.8328 162.223 31.2868 159.577 31.0598C155.326 30.6999 156.044 29.3886 157.268 27.4084ZM154.271 26.7491C153.979 27.2804 153.689 27.8093 153.399 28.3405C153.404 28.3405 153.421 28.3405 153.421 28.3405C152.704 29.6156 151.115 32.2093 157.268 32.6271C162.559 32.9893 164.423 32.3131 165.839 30.3401C166.71 30.4488 167.592 30.4464 168.464 30.3329C167.957 31.4389 166.621 33.9263 161.096 33.9263H155.15C151.97 33.9263 149.625 33.5641 146.111 30.0841C146.111 30.0841 149.555 26.4545 154.271 26.7443M162.653 39.8598C158.251 39.6086 155.52 40.2969 154.177 42.3254H151.909C153.769 39.0532 156.932 38.4181 160.555 38.4084C167.969 38.3843 178.633 40.9103 184.617 44.4144C179.766 42.6056 173.518 40.4901 162.653 39.8598ZM185.467 43.1393C180.408 40.507 170.838 37.0609 158.826 37.0536C153.573 37.3507 151.566 38.4181 148.91 42.3737H146.002C148.47 38.0293 150.866 35.4791 156.015 35.4791H162.371C166.08 35.4791 168.039 35.7133 170.212 31.3399C170.28 31.2071 170.345 31.0839 170.408 30.9607C170.743 30.0648 172.207 26.8602 176.134 26.0681C176.134 26.0681 173.801 27.6499 176.53 28.3019C181.987 29.0578 192.666 31.0598 185.467 43.1393Z" />
<path fill-rule="evenodd" clip-rule="evenodd" d="M141.808 37.2807C139.615 41.0866 138.746 41.9608 140.284 43.7672H115.992C112.408 43.7672 110.08 43.6319 108.882 41.7845C107.716 39.9902 107.958 38.278 111.097 32.6319H131.752C135.307 32.6319 136.222 32.8348 138.151 34.332C139.388 35.2932 140.605 36.276 141.808 37.2782V37.2807Z" />
</g>
</svg>
