<svg xmlns="http://www.w3.org/2000/svg" width="300" height="100" viewBox="0 0 300 100"><path d="M69.33,40.14c-1.4-1.8-4.19-2.61-6.33-2.61-2.45,0-5.85,1.08-5.85,4.08,0,7.2,18.24,2.55,18.24,16.42,0,8.78-7.08,13.07-15.28,13a21.46,21.46,0,0,1-15.94-7.67l5.65-6.83A25.8,25.8,0,0,0,52.09,59c2.81,2.59,5.63,4,8.51,4s6.06-1.32,6.06-4.14c0-7.26-18.53-3.34-18.53-16.58,0-8.43,7.32-12.87,15.09-12.87a17.88,17.88,0,0,1,12.13,4.16Z" /><path d="M78.63,30.47h28.49l-6.29,8.06H87.36v7.36h17.15v8H87.36V62h19.18v8H88.08a17.37,17.37,0,0,1-5.2-2.23c-3.47-2.14-4.25-3.56-4.25-3.56Z" /><path d="M110.36,30.48h15.29c8.13,0,14.95,2.78,14.95,12,0,5.57-2.93,9.88-8.56,10.89L142.13,70H131.64l-8.27-15.81h-4.28V70h-8.73Zm8.73,16.36h5.13c3.18,0,7.32-.1,7.32-4.41,0-4-3.58-4.57-6.83-4.57H119Z" /><polygon points="140.29 30.48 150.25 30.48 160.02 56.4 160.16 56.4 170.09 30.48 179.42 30.48 163.1 70.05 156.11 70.05 140.29 30.48" /><path d="M234.25,29c12.49,0,21.58,8.2,21.58,21s-9.09,21-21.58,21-21.57-8.18-21.57-21,9.11-21,21.57-21m0,33.87c7.52,0,12.41-5.41,12.41-12.87s-4.87-12.87-12.41-12.87-12.4,5.4-12.4,12.87,4.87,12.87,12.4,12.87" /><path d="M216.39,60.33A20.88,20.88,0,0,1,198.29,71c-12.47,0-21.56-8.18-21.56-21S186,29,198.29,29c6.14,0,11.41,2.09,14.57,4.88L206,39.56a12.05,12.05,0,0,0-8-2.56c-7.17,0-12.18,5.7-12.18,12.9,0,7,4.69,12.84,12,12.84,10.46,0,11.24-9.65,9.6-12.68Z" /></svg>
