<svg width="300" height="100" viewBox="0 0 300 100" fill="none" xmlns="http://www.w3.org/2000/svg">
<g clip-path="url(#clip0_5361_1951)">
<path d="M57.9909 68.986H56.2155L48 51.2033H50.3721L57.1412 66.3432L63.8307 51.2033H66.0798L57.9909 68.986ZM70.0249 49.2231H67.9999V46.8627H70.0249V49.2231ZM70.0249 68.986H67.9999V51.2033H70.0249V68.986ZM103.451 49.1905H101.426V46.8301H103.451V49.1905ZM103.451 68.9498H101.426V51.1708H103.451V68.9498ZM154.436 68.9498H152.407V46.8301H154.436V68.9498ZM201.444 49.1905H199.422V46.8301H201.444V49.1905ZM201.444 68.9498H199.422V51.1708H201.444V68.9498ZM146.886 68.9498H144.868V46.8301H146.886V51.1744H150.364V53.0641H146.886V68.9498ZM193.893 68.9498H191.876V46.8301H193.893V51.1744H197.365V53.0714H193.893V68.9498ZM134.23 69.3118C130.939 69.3118 127.602 67.3822 127.602 63.7077V63.6389C127.602 59.7833 130.278 57.8248 135.532 57.8248H140.493V57.7741C140.493 54.5412 138.66 52.894 135.051 52.894C133.21 52.9171 131.401 53.3721 129.768 54.2226L129.598 54.3059L128.853 52.6225L129.009 52.5501C130.946 51.5434 133.092 51.0065 135.275 50.9825C137.665 50.9825 139.491 51.5979 140.699 52.7926C141.907 53.9873 142.453 55.5947 142.453 57.7379V68.9244H140.489V66.5676C139.683 67.556 137.625 69.3009 134.226 69.3009L134.23 69.3118ZM129.674 63.6099C129.674 65.8364 131.655 67.4618 134.375 67.4618C137.43 67.4618 140.522 65.7169 140.522 61.8179V59.6928H135.763C131.457 59.6928 129.699 60.8296 129.699 63.6244L129.674 63.6099ZM163.49 69.3118C160.203 69.3118 156.87 67.3822 156.87 63.7077V63.6389C156.87 59.7833 159.535 57.8248 164.796 57.8248H169.786V57.7741C169.786 54.5412 167.949 52.894 164.337 52.894C162.498 52.9167 160.691 53.3718 159.061 54.2226L158.887 54.3059L158.146 52.6225L158.294 52.5501C160.234 51.545 162.381 51.0082 164.564 50.9825C166.954 50.9825 168.781 51.5979 169.988 52.7926C171.196 53.9873 171.735 55.5947 171.735 57.7379V68.9244H169.782V66.5676C168.983 67.556 166.922 69.3009 163.512 69.3009L163.49 69.3118ZM158.934 63.6099C158.934 65.8364 160.919 67.4618 163.635 67.4618C166.691 67.4618 169.782 65.7169 169.782 61.8179V59.6928H165.027C160.724 59.6928 158.96 60.8296 158.96 63.6244L158.934 63.6099ZM121.133 68.9498H119.108V59.5589C119.108 57.5243 119.108 52.7637 113.897 52.7637C110.187 52.7637 107.971 55.5802 107.971 60.2901V68.9498H105.953V51.1708H107.971V54.1321C108.632 53.1088 109.545 52.2721 110.621 51.7017C111.697 51.1314 112.901 50.8464 114.118 50.8739C118.634 50.8739 121.118 53.6144 121.118 58.585V68.9498H121.133ZM189.475 68.9498H187.432V59.5589C187.432 57.5243 187.432 52.7637 182.217 52.7637C178.515 52.7637 176.305 55.5802 176.305 60.2901V68.9498H174.284V51.1708H176.305V54.1321C176.966 53.108 177.878 52.2708 178.954 51.7003C180.031 51.1299 181.235 50.8453 182.452 50.8739C186.965 50.8739 189.457 53.6144 189.457 58.585V68.9498H189.475ZM90.5057 74C87.662 74.0185 84.896 73.0716 82.659 71.3138L82.5325 71.2052L83.6824 69.5761L83.827 69.6811C85.588 70.9264 87.6057 72.0777 90.5419 72.0777C94.6677 72.0777 96.9385 69.605 96.9385 65.1051V64.2072C95.7669 66.0174 93.2141 67.6972 90.1116 67.6972C87.9978 67.6838 85.9658 66.8778 84.4164 65.4381C83.5905 64.6606 82.9348 63.7198 82.491 62.6754C82.0472 61.6309 81.8249 60.5056 81.8382 59.3706V59.2982C81.8237 58.1582 82.0453 57.0277 82.489 55.9777C82.9328 54.9278 83.589 53.9814 84.4164 53.1981C85.9548 51.7366 87.9909 50.916 90.1116 50.9029C93.2502 50.9029 95.7922 52.4921 96.9385 54.2335V51.2033H98.9237V65.0725C98.9237 68.0664 98.2583 70.0974 96.7541 71.6396C95.2498 73.1818 93.0513 74 90.5093 74H90.5057ZM90.2743 52.8759C86.6149 52.8759 83.9536 55.5549 83.9536 59.2475V59.3091C83.9391 60.1521 84.093 60.9895 84.4061 61.7722C84.7193 62.5549 85.1855 63.2671 85.7772 63.8671C86.369 64.467 87.0745 64.9425 87.8524 65.2657C88.6302 65.589 89.4647 65.7535 90.3068 65.7495C93.4961 65.7495 96.9457 63.2986 96.9457 59.338V59.2692C96.9277 55.2616 93.5612 52.8759 90.2743 52.8759ZM212.635 69.167C207.649 69.167 203.736 65.1594 203.736 60.0512V59.986C203.736 54.8308 207.649 50.7942 212.635 50.7942C213.962 50.7768 215.277 51.0471 216.49 51.5864C217.702 52.1256 218.784 52.9212 219.661 53.9185L219.766 54.0452L218.489 55.4101L218.363 55.2689C216.598 53.5384 214.714 52.6913 212.606 52.6913C208.838 52.6913 205.884 55.8553 205.884 59.8992V59.9679C205.884 64.0443 208.892 67.2338 212.754 67.2338C213.825 67.2159 214.88 66.973 215.851 66.5208C216.822 66.0687 217.688 65.4174 218.392 64.6091L218.511 64.4679L219.842 65.6807L219.751 65.8074C218.959 66.9623 216.457 69.1489 212.649 69.1489L212.635 69.167ZM74.5629 68.986H72.538V51.2033H74.5629V55.439C76.1431 52.5428 78.9021 50.9137 82.0552 51.044H82.2324V53.1546H81.8708C78.2331 53.1546 74.5557 55.7685 74.5557 61.6296V68.9787L74.5629 68.986Z" />
<path d="M253 25H235.643C230.245 25 228.947 25.8833 226.802 28.2365L211.254 45.2915C223.656 44.6977 227.482 57.1984 240.084 53.7737L253 25Z" />
<path d="M230.245 31.6902C230.245 31.6902 231.019 30.2638 231.63 29.7968C231.818 29.6791 231.977 29.5202 232.096 29.3322C232.214 29.1441 232.288 28.9316 232.313 28.7107C232.324 28.5742 232.301 28.437 232.248 28.311C232.194 28.1849 232.111 28.0737 232.006 27.9867C232.006 27.9867 231.066 27.2228 230.303 28.5297C230.303 28.5297 226.687 35.3466 225.457 42.2251C225.457 42.2251 225.363 42.4459 225.338 41.8232C225.338 41.8232 224.81 36.0526 224.788 35.8426C224.767 35.6326 224.788 35.1185 224.3 35.0751C224.3 35.0751 223.736 34.9701 223.4 35.8281L221.801 39.7669C221.801 39.7669 221.537 40.2593 221.964 40.4439C221.964 40.4439 222.438 40.7154 222.749 40.0493L223.472 38.4673C223.617 38.1414 223.725 38.1885 223.725 38.1885C223.812 38.2066 223.848 38.5505 223.848 38.5505C223.848 38.5505 224.521 46.287 224.528 46.3594C224.535 46.4318 224.593 47.0436 225.114 47.0436C225.475 47.0436 225.609 46.6164 225.685 46.2689C225.761 45.9213 226.462 42.2287 227.634 38.2537C228.401 35.6435 229.388 33.0405 230.245 31.6902ZM229.182 38.4455C228.959 38.5138 228.761 38.6458 228.612 38.8252C228.463 39.0046 228.369 39.2237 228.343 39.4556L227.887 42.8333C227.815 43.503 228.683 43.0179 228.683 43.0179C228.794 42.9455 228.889 42.8514 228.963 42.7413C229.037 42.6312 229.088 42.5074 229.113 42.3771L229.25 41.53L229.67 39.2456C229.807 38.2826 229.192 38.4455 229.192 38.4455H229.182ZM230.664 38.7424C230.664 38.7424 230.422 40.5018 230.382 40.8892C230.382 40.8892 230.057 42.3735 230.852 42.1056C231.07 42.0195 231.257 41.87 231.389 41.6764C231.521 41.4828 231.592 41.254 231.593 41.0195L231.724 39.7561C231.74 39.482 231.821 39.2158 231.959 38.9791C232.098 38.7425 232.291 38.5422 232.523 38.3949C232.523 38.3949 233.318 38.0328 233.08 37.5405C233.08 37.5405 232.928 37.1459 232.454 37.3595C232.277 37.4447 232.09 37.5056 231.897 37.5405L231.348 37.6093C231.348 37.6093 230.758 37.6491 230.675 38.7569L230.664 38.7424ZM230.049 36.7295C230.538 36.3386 230.393 36.0055 230.393 36.0055C230.212 35.4806 229.547 36.0381 229.547 36.0381C228.986 36.4363 229.185 36.8309 229.185 36.8309C229.438 37.2617 230.06 36.7295 230.06 36.7295H230.049ZM238.2 39.1841C238.395 39.1307 238.569 39.0207 238.702 38.868C238.835 38.7153 238.919 38.5267 238.945 38.3261C238.945 38.3261 239.324 35.6362 239.339 35.5457C239.353 35.4552 239.52 34.7456 239.021 34.8543C238.843 34.8913 238.68 34.9796 238.551 35.1082C238.423 35.2368 238.335 35.4002 238.297 35.5783L237.838 38.2283L237.737 38.7569C237.737 38.7569 237.614 39.3361 238.2 39.1841ZM239.719 33.551C239.719 33.551 240.25 33.1093 240.008 32.7871C240.008 32.7871 239.78 32.4504 239.151 32.8993C239.151 32.8993 238.587 33.3627 238.934 33.6849C238.923 33.6885 239.259 33.9926 239.715 33.551H239.719ZM246.365 36.8381C246.242 36.6173 245.916 36.4761 245.341 36.7187C244.766 36.9612 244.477 37.106 244.455 37.1097C244.434 37.1133 243.707 37.497 243.783 36.5051L244.014 34.1628C244.014 34.1628 244.105 33.312 243.439 33.312C243.439 33.312 243.078 33.2758 242.517 33.7718C242.374 33.9076 242.208 34.0156 242.026 34.0904C241.87 34.1296 241.706 34.1208 241.555 34.065C241.379 34.0065 241.189 34.0065 241.013 34.065C240.804 34.1436 240.625 34.2866 240.503 34.4732C240.38 34.6599 240.319 34.8808 240.33 35.1041L240.077 37.1821C240.012 37.4987 239.989 37.8224 240.008 38.1451C240.008 38.1451 240.077 38.4709 240.662 38.2754C240.662 38.2754 241.161 38.1233 241.219 37.2726C241.219 37.2726 241.36 35.6109 241.581 35.2887C241.745 34.9844 241.981 34.7247 242.268 34.5321C242.268 34.5321 242.839 34.2569 242.832 34.7239L242.626 36.6318C242.626 36.6318 242.423 37.5658 242.846 37.7179C242.846 37.7179 242.893 37.7179 242.785 37.7939C242.785 37.7939 240.048 38.9596 236.518 40.929C236.761 38.927 237.173 36.1394 237.173 36.1394C237.234 35.6869 236.681 35.6869 236.681 35.6869C236.139 35.6869 236.063 36.3024 236.016 36.5847C235.969 36.8671 235.564 39.1189 235.564 39.1189C235.379 40.1434 234.768 40.0927 234.768 40.0927C234.168 40.1615 234.53 38.5397 234.53 38.5397C234.689 37.9568 234.743 37.4536 235.202 37.0735C235.661 36.6933 235.694 36.201 235.354 36.1865C234.79 36.1575 234.215 36.7657 234.215 36.7657C233.213 37.7541 233.217 40.1507 233.217 40.1507C233.193 40.3456 233.227 40.5432 233.314 40.719C233.402 40.8948 233.539 41.0409 233.709 41.139C234.345 41.4286 235.22 40.9182 235.22 40.9182C235.426 40.777 235.397 40.9761 235.397 40.9761L235.354 41.5843C232.549 43.1732 229.887 45.0035 227.399 47.0545C227.399 47.0545 226.26 47.8908 226.676 48.4483C227.092 49.0058 227.761 48.499 228.01 48.26C228.01 48.26 230.541 45.6498 235.242 42.7283L235.094 44.6905C235.029 45.5774 234.732 48.3107 234.732 48.3107C234.602 49.3968 234.776 49.5995 234.833 49.6755C234.948 49.8209 235.112 49.919 235.294 49.951C235.476 49.9831 235.663 49.9469 235.821 49.8493C236.403 49.4873 236.113 48.5822 236.019 48.1587C235.956 47.7893 235.928 47.4147 235.936 47.04C235.976 46.4752 236.298 42.6631 236.298 42.6631C236.298 42.5147 236.323 42.3011 236.348 42.0477C238.336 40.871 240.399 39.8285 242.525 38.927C242.525 38.927 243.523 38.5324 244.372 38.2645C244.372 38.2645 244.654 38.1523 245.012 38.0437C245.493 37.9061 246.097 37.6817 246.296 37.4246C246.363 37.344 246.405 37.2454 246.416 37.1412C246.428 37.0369 246.409 36.9316 246.361 36.8381H246.365Z" fill="#F0F0F0"/>
</g>
<defs>
<clipPath id="clip0_5361_1951">
<rect width="205" height="49" transform="translate(48 25)"/>
</clipPath>
</defs>
</svg>
