<svg width="300" height="100" viewBox="0 0 300 100" xmlns="http://www.w3.org/2000/svg">
	<path d="M228.102 57.591C227.752 57.591 227.41 57.5472 227.074 57.467C226.848 57.4233 226.608 57.416 226.345 57.3722C225.864 57.2701 225.375 57.2483 224.887 57.1608C224.632 57.117 224.369 57.0806 224.114 57.0587C223.8 57.0441 223.48 57.0004 223.173 56.9274C222.976 56.8837 222.78 56.8618 222.583 56.8545C222.291 56.8035 221.999 56.767 221.7 56.7597C221.525 56.7597 221.372 56.6649 221.19 56.6795C221.03 56.6795 220.877 56.6577 220.723 56.6285C220.403 56.6285 220.104 56.5556 219.797 56.5264C219.455 56.5191 219.112 56.4754 218.777 56.3952C218.74 56.3806 218.696 56.3806 218.66 56.3952C218.31 56.3879 217.96 56.3587 217.61 56.3004C217.143 56.3004 216.684 56.1983 216.21 56.1472C215.962 56.1472 215.721 56.1472 215.481 56.0743C215.24 56.0014 215 56.0743 214.752 56.0014C214.402 55.8848 214.022 56.0014 213.658 55.8629H213.541C213.155 55.8775 212.776 55.8483 212.396 55.7681C212.025 55.7754 211.653 55.7316 211.295 55.6441H211.332C210.909 55.6879 210.493 55.5275 210.071 55.5639C209.852 55.5639 209.662 55.4691 209.443 55.4837C209.232 55.5202 209.021 55.4983 208.824 55.4181H208.751C208.299 55.4618 207.854 55.3014 207.402 55.3379C207.198 55.3379 207.001 55.2431 206.782 55.2577C206.571 55.3014 206.359 55.2796 206.162 55.1921H206.089C205.564 55.2358 205.039 55.0827 204.522 55.1119C204.303 55.0754 204.077 55.0535 203.858 55.0389C203.639 55.0754 203.406 55.0535 203.202 54.966H203.158C202.662 55.0244 202.167 54.8566 201.7 54.8931C201.459 54.8931 201.24 54.8056 200.971 54.8129C200.73 54.8421 200.482 54.8421 200.242 54.8129C199.928 54.74 199.614 54.8129 199.316 54.7473C198.893 54.6744 198.462 54.7473 198.054 54.6598C197.646 54.5723 197.325 54.6598 196.997 54.5942C196.669 54.5285 196.071 54.5942 195.626 54.5067C195.181 54.4192 194.897 54.5067 194.51 54.441C194.022 54.3681 193.533 54.441 193.052 54.3535C192.571 54.266 192.257 54.3535 191.856 54.2952C191.302 54.2223 190.733 54.2952 190.179 54.2077C189.771 54.1567 189.363 54.2077 188.954 54.1421C188.356 54.0619 187.751 54.1421 187.161 54.0546C186.738 54.0108 186.315 53.989 185.892 54.0035C185.542 54.0035 185.163 53.9015 184.842 53.916C184.492 53.9525 184.142 53.9525 183.792 53.916C183.201 53.8213 182.611 53.916 182.035 53.8431C181.459 53.7702 180.686 53.8431 180.015 53.7629C179.344 53.6827 178.615 53.7629 177.915 53.69C177.215 53.6171 176.333 53.69 175.604 53.6463C174.874 53.5952 174.145 53.5733 173.416 53.5952C172.847 53.5952 172.279 53.4858 171.703 53.5077C171.119 53.5515 170.536 53.5515 169.953 53.5077C168.771 53.3911 167.598 53.5077 166.424 53.4275C165.643 53.3692 164.87 53.3838 164.098 53.3692C163.325 53.3546 162.53 53.4202 161.757 53.3692C160.561 53.2671 159.373 53.3692 158.191 53.3181C157.01 53.2671 155.822 53.3181 154.641 53.3181C153.459 53.3181 152.242 53.3181 151.046 53.3181C150.462 53.2671 149.879 53.2525 149.296 53.2671C147.488 53.3983 145.687 53.2671 143.878 53.3254C142.07 53.3838 140.232 53.2744 138.439 53.3254C136.878 53.3911 135.325 53.3254 133.772 53.3983C132.569 53.4786 131.366 53.3983 130.17 53.4713C129.179 53.5515 128.187 53.4713 127.203 53.5442C126.218 53.6171 125.423 53.5442 124.541 53.6244C123.812 53.6973 123.039 53.6244 122.295 53.6973C121.552 53.7702 120.837 53.6973 120.108 53.7702C119.379 53.8431 118.832 53.7702 118.205 53.8504C117.578 53.9306 116.951 53.8504 116.331 53.9233C115.711 53.9963 115.157 53.9233 114.581 53.9963C114.005 54.0692 113.502 53.9963 112.977 54.0765C112.452 54.1567 111.927 54.0765 111.409 54.1494C110.891 54.2223 110.381 54.1494 109.885 54.2296C109.389 54.3098 108.981 54.2296 108.544 54.3025C108.106 54.3754 107.618 54.3025 107.166 54.3754C106.713 54.4483 106.283 54.3754 105.86 54.4483C105.437 54.5212 105.015 54.4483 104.599 54.5285C104.183 54.6087 103.768 54.5285 103.374 54.6014C102.98 54.6744 102.645 54.6014 102.258 54.6744C101.872 54.7473 101.485 54.6744 101.106 54.7546C100.727 54.8348 100.312 54.7546 99.9178 54.8275C99.524 54.9004 99.1886 54.8275 98.8022 54.9077C98.4157 54.9879 98.1824 54.9077 97.8762 54.9733C97.5699 55.0389 97.147 54.9733 96.8262 55.0535C96.5054 55.1337 96.1481 55.0535 95.8272 55.1337C95.3971 55.1483 94.9669 55.1921 94.544 55.265C94.0627 55.2212 93.6033 55.3743 93.1367 55.3379C92.9325 55.3379 92.7357 55.4327 92.5169 55.4181C92.3055 55.3816 92.094 55.4035 91.8971 55.491H91.7513C91.2919 55.4473 90.8399 55.5931 90.3732 55.5712C90.1836 55.6077 89.9868 55.6368 89.7899 55.6514C89.6076 55.615 89.418 55.6368 89.243 55.7098H89.1701C88.7618 55.6952 88.3462 55.7316 87.9451 55.8118C87.5733 55.8045 87.2014 55.841 86.8441 55.9358H86.7712C86.3702 55.892 85.9837 56.0525 85.5827 56.016C85.2619 56.1618 84.8535 56.016 84.5619 56.1618C84.2265 56.1618 83.8911 56.191 83.5629 56.2493C83.213 56.2566 82.8557 56.3004 82.513 56.3806H82.3671C81.9369 56.3806 81.5067 56.4754 81.0838 56.5118C80.763 56.5702 80.4422 56.6066 80.1214 56.6066C79.9609 56.6066 79.8443 56.6941 79.6839 56.6868C79.538 56.6504 79.3849 56.6722 79.2537 56.7524C79.2537 56.7524 79.1516 56.7524 79.1005 56.7524C78.7068 56.7524 78.3204 56.8545 77.9339 56.8837C77.5475 56.9129 77.3652 56.942 77.0881 56.9931C76.7964 57.0149 76.5048 57.0587 76.2131 57.117C75.9725 57.1608 75.7319 57.1826 75.484 57.1899C75.2288 57.2556 74.9736 57.2847 74.7111 57.2847C74.4923 57.4306 74.2225 57.2847 73.9819 57.416C73.8069 57.467 73.6173 57.4889 73.4351 57.4889C73.1798 57.4889 72.9246 57.5764 72.6622 57.591C72.4142 57.6128 72.1736 57.6566 71.933 57.7149H71.7945C71.7288 57.7149 71.6122 57.7149 71.6195 57.7149C71.6268 57.7149 71.7288 57.6785 71.7945 57.6712C72.5819 57.4087 73.3184 57.2264 74.0621 57.0514C74.4559 56.9566 74.8496 56.8837 75.2361 56.7962C75.9215 56.6431 76.5996 56.5191 77.2777 56.366C77.5839 56.2931 77.9047 56.2566 78.2183 56.191C78.7068 56.0889 79.2026 56.0306 79.6766 55.9066C80.0266 55.8191 80.4057 55.7973 80.7338 55.7389C81.062 55.6806 81.463 55.5785 81.8494 55.542C82.2359 55.5056 82.5786 55.3743 82.9723 55.3525C83.2057 55.3306 83.4317 55.2941 83.6577 55.2358C83.8473 55.2358 84.0442 55.1775 84.2411 55.1483C84.7223 55.0754 85.2035 54.9806 85.6994 54.9296C85.9691 54.8931 86.2389 54.8639 86.5014 54.8129C86.7493 54.7983 86.99 54.7619 87.2306 54.6962C87.4056 54.6452 87.5952 54.6233 87.7774 54.6233C88.0326 54.5723 88.2878 54.5431 88.5503 54.5358C88.7035 54.5358 88.8274 54.441 88.9878 54.4483C89.1337 54.4556 89.2795 54.441 89.418 54.3973C89.6368 54.3535 89.8555 54.3244 90.0815 54.3244C90.3878 54.2369 90.7013 54.1931 91.0222 54.1931C91.168 54.1931 91.2992 54.0983 91.4596 54.1202C91.5909 54.1494 91.7367 54.1275 91.8534 54.0546C91.8534 54.0546 91.9263 54.0546 91.9628 54.0546C92.3711 54.0546 92.7721 53.9525 93.1731 53.916C93.5742 53.8796 93.7929 53.865 94.0992 53.814C94.4419 53.8067 94.7846 53.7629 95.12 53.6827H95.2293C95.5793 53.6827 95.9293 53.6463 96.2793 53.5879C96.7533 53.5879 97.2345 53.4858 97.7376 53.4421L99.247 53.289C99.7574 53.2452 100.304 53.2161 100.793 53.1286C101.165 53.1359 101.537 53.0921 101.894 53.0046C102.331 53.0119 102.761 52.9754 103.192 52.9098C103.6 52.9171 104.008 52.8734 104.402 52.7786C104.424 52.7713 104.453 52.7713 104.475 52.7786C104.956 52.8223 105.423 52.6619 105.882 52.6984C106.123 52.6984 106.334 52.6109 106.611 52.6182C106.852 52.6692 107.107 52.6473 107.341 52.5525C107.742 52.5963 108.135 52.4723 108.529 52.4796C109.076 52.4796 109.615 52.3484 110.17 52.3994C110.498 52.3411 110.833 52.3119 111.169 52.3192C111.57 52.2463 111.971 52.3192 112.357 52.239C112.744 52.1588 113.137 52.239 113.509 52.1661C113.881 52.0932 114.406 52.1661 114.851 52.0859C115.296 52.0057 115.646 52.0859 116.039 52.013C116.55 51.94 117.067 52.013 117.571 51.9328C118.074 51.8526 118.467 51.9328 118.912 51.8598C119.357 51.7869 119.984 51.8598 120.509 51.7796C121.034 51.6994 121.537 51.7796 122.04 51.714C122.689 51.6265 123.345 51.714 123.987 51.6265C124.629 51.539 125.139 51.6265 125.708 51.5609C126.488 51.4661 127.283 51.5609 128.063 51.4807C128.675 51.4296 129.288 51.4151 129.893 51.4224C130.498 51.4296 131.016 51.3203 131.577 51.3349C132.132 51.3786 132.679 51.3786 133.233 51.3349C134.392 51.2182 135.544 51.3349 136.689 51.2619C137.542 51.1963 138.388 51.2182 139.241 51.2036C140.094 51.189 140.962 51.2474 141.815 51.2036C143.113 51.1015 144.418 51.2036 145.716 51.1526C147.014 51.1015 148.311 51.1526 149.609 51.1526H153.539C154.837 51.1526 156.135 51.1015 157.426 51.1526C158.286 51.1963 159.154 51.1526 160.014 51.1963C160.875 51.2401 161.728 51.1526 162.581 51.1963C163.777 51.2984 164.965 51.1963 166.154 51.2765C167.102 51.3494 168.057 51.2765 169.005 51.3494C169.829 51.4224 170.66 51.3494 171.477 51.4224C172.206 51.4953 172.847 51.4224 173.533 51.4953C174.218 51.5682 174.882 51.4953 175.553 51.5755C176.223 51.6557 176.756 51.5755 177.346 51.6484C177.937 51.7213 178.469 51.6484 179.023 51.7213C179.577 51.7942 180.081 51.7213 180.591 51.8015C181.101 51.8817 181.597 51.8015 182.049 51.8744C182.501 51.9473 182.975 51.8744 183.435 51.9473C183.894 52.0203 184.332 51.9473 184.769 52.0275C185.206 52.1078 185.593 52.0275 186.001 52.1005C186.41 52.1734 186.847 52.1005 187.263 52.1807C187.678 52.2609 187.992 52.1807 188.378 52.2536C188.765 52.3265 189.151 52.2536 189.53 52.3265C189.91 52.3994 190.259 52.3265 190.58 52.3994C190.901 52.4723 191.309 52.3994 191.652 52.4796C191.995 52.5598 192.33 52.4796 192.651 52.5525C192.972 52.6254 193.278 52.5525 193.577 52.6254C193.876 52.6984 194.306 52.6254 194.627 52.7057C194.948 52.7859 195.225 52.7057 195.517 52.7713C196.107 52.8515 196.698 52.8879 197.289 52.939C197.558 52.9463 197.828 52.9681 198.098 53.0046C198.382 53.0629 198.674 53.0046 198.951 53.0848C199.228 53.165 199.498 53.1213 199.76 53.1504C200.293 53.2234 200.81 53.2671 201.343 53.3109C201.875 53.3546 202.327 53.4129 202.801 53.464C203.275 53.515 203.734 53.5733 204.201 53.6098C204.667 53.6463 205.134 53.7192 205.608 53.7629C206.082 53.8067 206.461 53.865 206.891 53.916L208.167 54.0619C208.598 54.1129 208.977 54.1494 209.371 54.215C209.764 54.2806 210.275 54.3244 210.719 54.4119C210.967 54.4629 211.237 54.4629 211.492 54.5067C211.748 54.5504 212.119 54.5796 212.433 54.6379L213.162 54.7473C213.432 54.7619 213.702 54.8056 213.964 54.8639C214.168 54.9077 214.372 54.9369 214.577 54.9369C215.007 54.9806 215.43 55.0754 215.86 55.1264C216.29 55.1775 216.83 55.2504 217.318 55.3525C217.807 55.4546 218.303 55.5348 218.777 55.615C219.25 55.6952 219.79 55.7973 220.3 55.8702C221.03 55.9722 221.679 56.0962 222.349 56.2493C223.02 56.4024 223.924 56.5702 224.705 56.7524C225.485 56.9347 226.163 57.0806 226.848 57.2337C227.271 57.3285 227.694 57.4451 228.11 57.5837L228.102 57.591Z" />
	<path d="M88.6448 32.5958H89.9645C90.1176 32.5958 90.1687 32.6469 90.2197 32.7927C90.526 33.7698 90.8541 34.7395 91.1676 35.7093L91.8968 37.9988C92.1447 38.7644 92.4218 39.5884 92.677 40.3904C92.903 41.0686 93.1072 41.754 93.3186 42.4394C93.4936 42.9716 93.6759 43.4893 93.8436 44.0362C93.8436 44.1091 93.9165 44.1602 93.9238 44.2404L93.9676 44.2841C93.9748 44.2622 93.9748 44.2477 93.9676 44.2258L95.2509 40.3686C95.3748 39.9894 95.5061 39.6394 95.63 39.2238C95.8269 38.6259 96.0165 38.028 96.2133 37.4228L97.7446 32.7708C97.832 32.5156 97.832 32.5156 98.08 32.5156H99.9612C100.165 32.5156 100.165 32.5156 100.238 32.7344C100.501 33.5146 100.778 34.2948 101.026 35.0822C101.201 35.6291 101.419 36.1541 101.573 36.7009C102.025 38.2467 102.586 39.7488 103.031 41.28C103.228 41.8779 103.432 42.4758 103.629 43.0737L103.979 44.1893C103.986 44.2258 103.993 44.2549 104.015 44.2841C104.015 44.2841 104.103 44.2258 104.11 44.182C104.19 43.8758 104.336 43.5841 104.409 43.2779C104.54 42.7383 104.759 42.2279 104.912 41.681C105.124 40.9519 105.393 40.2227 105.641 39.4936C105.889 38.6405 106.195 37.8093 106.458 36.9634C106.72 36.1176 106.997 35.3739 107.231 34.5718C107.391 34.0177 107.581 33.4854 107.748 32.9385C107.865 32.5521 107.872 32.5594 108.266 32.5594H110.709C110.811 32.5594 110.818 32.5594 110.774 32.676C110.483 33.5219 110.198 34.3822 109.885 35.2208C109.695 35.7385 109.535 36.278 109.367 36.7739L108.317 39.8071C107.967 40.8206 107.639 41.805 107.289 42.8039L105.831 46.9747C105.663 47.4705 105.481 47.959 105.32 48.433C105.306 48.5059 105.24 48.5569 105.167 48.5496H103.067C102.951 48.5569 102.856 48.4767 102.834 48.3673C102.535 47.4851 102.229 46.6101 101.937 45.7424C101.587 44.6924 101.208 43.6206 100.858 42.5925C100.508 41.5644 100.173 40.5581 99.8008 39.5519C99.5383 38.8228 99.2976 38.0936 99.0716 37.3061C99.0716 37.2697 99.0716 37.2478 98.9987 37.2405C98.9622 37.2405 98.9331 37.2697 98.9258 37.3061C98.7216 37.9186 98.5247 38.5311 98.3133 39.1436C97.9633 40.1207 97.6716 41.105 97.3216 42.0602C96.906 43.2123 96.5925 44.3935 96.1258 45.5455C95.8123 46.3768 95.5863 47.2372 95.2436 48.0538C95.1852 48.2069 95.2436 48.4257 95.054 48.5205C94.8863 48.5642 94.704 48.5642 94.5363 48.5205H92.9832C92.7061 48.5205 92.6624 48.5205 92.5749 48.2434C92.4874 47.9663 92.3926 47.6601 92.2905 47.3757L91.102 44.0216C90.8103 43.1758 90.5333 42.3227 90.227 41.4769C89.9208 40.6311 89.6874 39.8363 89.3885 39.0269C88.9583 37.8676 88.5645 36.7155 88.1708 35.5708C87.9156 34.8416 87.6239 34.1125 87.3833 33.3323C87.3177 33.1281 87.2229 32.9239 87.1719 32.7052C87.1719 32.6031 87.1719 32.5885 87.2448 32.5885L88.6448 32.5958Z" />
	<path d="M212.747 40.5213V48.3159C212.747 48.4034 212.747 48.4545 212.63 48.4545H210.092C209.976 48.4545 209.947 48.4034 209.954 48.2941C209.961 48.1847 209.954 48.1191 209.954 48.0316V37.2693C209.954 37.2474 209.954 37.2256 209.954 37.2037L209.896 37.2474C209.75 37.4516 209.597 37.6485 209.465 37.8526C208.598 39.1505 207.766 40.4703 206.87 41.7463C206.235 42.6577 205.659 43.5983 205.003 44.4952C204.923 44.6118 204.923 44.6118 204.835 44.4952L203.042 41.8338L200.016 37.2985C200.016 37.2985 200.016 37.2183 199.957 37.2401C199.899 37.262 199.957 37.2839 199.957 37.3131V48.1336C199.957 48.4836 200.016 48.4545 199.644 48.4545H197.376C197.179 48.4545 197.172 48.4545 197.172 48.243V32.9892C197.172 32.5955 197.172 32.5955 197.566 32.5955H199.943C200.088 32.5809 200.227 32.6611 200.293 32.7923C200.869 33.7038 201.467 34.6006 202.043 35.5193C202.451 36.1683 202.888 36.7954 203.297 37.437C203.844 38.2828 204.376 39.1359 204.915 39.989C204.974 40.0692 205.025 40.0765 205.083 39.989C205.484 39.3109 205.929 38.6693 206.345 37.9985C206.76 37.3276 207.241 36.6495 207.672 35.9568L208.401 34.8412C208.634 34.4767 208.911 34.0319 209.188 33.6381C209.465 33.2444 209.575 33.0111 209.793 32.7121C209.83 32.6392 209.91 32.5882 209.99 32.5955H212.659C212.798 32.5955 212.834 32.5955 212.834 32.7632V40.5213H212.747Z" />
	<path d="M142.419 40.5217V48.3163C142.419 48.4038 142.419 48.4549 142.288 48.4549H140.137C140.079 48.4622 140.02 48.4257 139.991 48.3747C139.86 48.1851 139.7 48.0101 139.554 47.8205L138.591 46.5591C138.263 46.1362 137.957 45.706 137.614 45.2977C137.272 44.8893 137.038 44.5685 136.747 44.1894C136.455 43.8102 136.112 43.3654 135.799 42.9498C135.485 42.5342 135.223 42.2207 134.931 41.8415C134.515 41.3019 134.092 40.7696 133.684 40.2301C133.276 39.6905 132.7 38.9832 132.226 38.3634C132.014 38.0937 131.818 37.8093 131.606 37.5322C131.555 37.4666 131.497 37.401 131.431 37.3426C131.431 37.3426 131.387 37.277 131.344 37.3426C131.3 37.4083 131.344 37.3864 131.344 37.4083V47.9809C131.344 48.1413 131.416 48.3309 131.344 48.4549C131.271 48.5788 131.03 48.4549 130.87 48.4549H129.061C128.93 48.4549 128.777 48.4913 128.711 48.4549C128.646 48.4184 128.711 48.1997 128.668 48.0611C128.66 47.9736 128.66 47.8861 128.668 47.7986V32.7344C128.668 32.6542 128.733 32.5886 128.813 32.5886C128.821 32.5886 128.821 32.5886 128.828 32.5886H131.052C131.169 32.5813 131.278 32.6323 131.344 32.7271C131.555 32.9969 131.781 33.2667 131.993 33.5438C132.321 33.9594 132.634 34.3823 132.962 34.7979C133.29 35.2135 133.531 35.5271 133.808 35.8843L134.428 36.7156C134.632 36.9854 134.843 37.2333 135.055 37.4958C135.266 37.7583 135.573 38.1593 135.784 38.4947C136.316 39.2238 136.892 39.953 137.432 40.6821C137.716 41.0613 138.023 41.4113 138.322 41.8196C138.737 42.3592 139.145 42.8988 139.561 43.431L139.67 43.5404C139.714 43.5404 139.736 43.5404 139.743 43.5404V32.9386C139.743 32.5886 139.743 32.5886 140.093 32.5886H142.281C142.412 32.5886 142.456 32.625 142.449 32.7563V40.5217H142.419Z" />
	<path d="M146.037 40.5216V32.778C146.037 32.5957 146.037 32.5957 146.227 32.5957H152.344C152.76 32.6176 153.175 32.6613 153.591 32.727C154.131 32.7999 154.663 32.9384 155.181 33.1207C155.968 33.3905 156.705 33.7842 157.368 34.2946C157.813 34.6446 158.221 35.0311 158.593 35.4613C159.096 36.0446 159.505 36.7154 159.789 37.43C159.993 38.006 160.168 38.5893 160.299 39.1872C160.263 39.5372 160.416 39.9164 160.379 40.2372C160.379 40.3976 160.379 40.5653 160.379 40.7257C160.387 41.1486 160.358 41.5643 160.292 41.9799C160.226 42.4101 160.117 42.8403 159.978 43.2559C159.716 43.9996 159.33 44.6923 158.834 45.3121C158.498 45.7642 158.105 46.1725 157.674 46.5298C157.047 47.0693 156.333 47.4995 155.567 47.8131C155.173 47.9662 154.765 48.0974 154.357 48.2068C154.014 48.2943 153.657 48.3599 153.307 48.411C152.133 48.4912 150.952 48.5131 149.778 48.4766C148.604 48.4766 147.43 48.4766 146.27 48.4766C146.037 48.4766 146.052 48.4766 146.052 48.2506L146.037 40.5216ZM148.844 40.5216V45.7714C148.844 45.8954 148.844 45.9464 149.012 45.9392C150.397 45.9902 151.783 45.9392 153.161 45.7933C154.277 45.6256 155.305 45.0788 156.078 44.2475C156.53 43.7736 156.88 43.2121 157.098 42.5996C157.332 42.0163 157.448 41.3893 157.448 40.7622V40.1934C157.448 39.7195 157.368 39.2456 157.222 38.7935C156.96 37.9331 156.479 37.1529 155.822 36.5404C155.436 36.1904 155.006 35.8988 154.539 35.6654C154.196 35.4977 153.832 35.3738 153.453 35.2936C153.197 35.2134 152.935 35.1623 152.665 35.1404H148.968C148.859 35.1404 148.801 35.1404 148.815 35.2863C148.83 35.4321 148.815 35.4686 148.815 35.5561L148.844 40.5216Z" />
	<path d="M163.346 40.521V32.7775C163.346 32.5952 163.346 32.5952 163.529 32.5952H165.979C166.088 32.5952 166.139 32.5952 166.132 32.741C166.125 32.8868 166.132 32.916 166.132 33.0035V38.9607C166.132 39.1575 166.132 39.1575 166.343 39.1648H173.598C173.657 39.1648 173.693 39.1648 173.693 39.0773V32.7337C173.686 32.6608 173.744 32.5952 173.824 32.5879C173.832 32.5879 173.839 32.5879 173.846 32.5879H176.333C176.449 32.5879 176.486 32.6389 176.478 32.7483C176.471 32.8212 176.471 32.8941 176.478 32.967V48.2792C176.478 48.4615 176.478 48.4688 176.289 48.4688H173.839C173.722 48.4688 173.671 48.4688 173.686 48.323C173.7 48.1771 173.686 48.1407 173.686 48.0532V41.921C173.686 41.8335 173.635 41.7971 173.54 41.8043H166.248C166.19 41.8043 166.11 41.8043 166.11 41.9283C166.11 42.0523 166.11 42.1033 166.11 42.1908V48.3084C166.117 48.3813 166.066 48.4469 165.993 48.4542C165.979 48.4542 165.964 48.4542 165.957 48.4542H163.47C163.346 48.4542 163.31 48.4032 163.317 48.2938C163.325 48.2209 163.325 48.148 163.317 48.075L163.346 40.521Z" />
	<path d="M193.831 48.4546H192.555C192.431 48.4692 192.315 48.3817 192.286 48.2577C192.052 47.6744 191.79 47.0984 191.557 46.5078C191.323 45.9172 191.148 45.487 190.944 44.9838L190.878 44.8526C190.835 44.6484 190.718 44.5901 190.507 44.5974H183.601C183.412 44.5682 183.23 44.6849 183.171 44.8672C182.996 45.3047 182.821 45.7422 182.632 46.1796C182.442 46.6171 182.282 47.0328 182.078 47.463C181.961 47.7254 181.837 47.9952 181.728 48.265C181.684 48.389 181.633 48.4546 181.494 48.4546H178.891C178.818 48.4546 178.782 48.4546 178.826 48.3525C179.197 47.5213 179.555 46.6755 179.927 45.8369C180.298 44.9984 180.656 44.2036 181.006 43.387C181.275 42.7672 181.545 42.1547 181.808 41.5423C182.231 40.5287 182.69 39.5298 183.113 38.5163C183.317 38.0277 183.543 37.5319 183.762 37.058C184.112 36.2851 184.433 35.5122 184.768 34.7393C184.98 34.258 185.206 33.7914 185.424 33.281C185.505 33.0549 185.607 32.8289 185.709 32.6102C185.731 32.5372 185.804 32.4935 185.876 32.5008H188.217C188.421 32.5008 188.465 32.6612 188.509 32.7852C188.618 33.106 188.771 33.4122 188.902 33.7258C189.107 34.2143 189.318 34.6882 189.522 35.1841L190.142 36.5913C190.463 37.3205 190.791 38.0496 191.104 38.7788C191.301 39.2454 191.498 39.7048 191.71 40.1569C191.972 40.7329 192.205 41.3235 192.439 41.9068C192.672 42.4901 192.942 43.0735 193.219 43.6422C193.496 44.2109 193.671 44.8016 193.948 45.363C194.225 45.9244 194.356 46.2817 194.553 46.7411C194.75 47.2005 195.027 47.7911 195.282 48.3088C195.326 48.4181 195.282 48.44 195.188 48.44L193.831 48.4546ZM186.985 42.1839H189.624C189.704 42.1839 189.741 42.1329 189.704 42.0599C189.566 41.71 189.435 41.3308 189.26 41.01C188.946 40.4121 188.735 39.7777 188.45 39.1652C188.224 38.6694 188.027 38.159 187.809 37.6559C187.685 37.3715 187.575 37.0871 187.459 36.8101C187.342 36.533 187.211 36.2486 187.08 35.9715C187.08 35.9351 187.05 35.9059 187.014 35.9059H187.007C186.956 35.9059 186.948 35.9059 186.934 35.9715L186.883 36.0736C186.671 36.5913 186.452 37.1017 186.226 37.6194C186.066 37.9986 185.876 38.3486 185.731 38.7569C185.468 39.3986 185.191 40.0402 184.914 40.6746C184.739 41.1412 184.535 41.6006 184.309 42.0454C184.309 42.1183 184.309 42.1693 184.382 42.1693H186.985V42.1839Z" />
	<path d="M113.239 32.5956H114.698C114.822 32.581 114.938 32.6539 114.982 32.7706C115.223 33.1935 115.5 33.6018 115.755 34.0174C116.258 34.8049 116.769 35.5851 117.213 36.3872C117.483 36.8393 117.789 37.2695 118.066 37.7215C118.416 38.3121 118.839 38.8809 119.175 39.5007C119.226 39.5954 119.277 39.5881 119.35 39.5007L120.524 37.6778L122.521 34.5789C122.923 33.9591 123.309 33.3393 123.695 32.7123C123.732 32.6466 123.761 32.6175 123.827 32.6175H126.918C126.904 32.6685 126.889 32.7196 126.86 32.7706C126.51 33.3175 126.131 33.857 125.781 34.4039C124.877 35.7601 123.951 37.109 123.076 38.4871C122.347 39.6465 121.544 40.7694 120.801 41.9287C120.713 42.06 120.669 42.2131 120.669 42.3735V48.1338C120.669 48.4838 120.669 48.4838 120.341 48.4838H118.154C117.804 48.4838 117.84 48.5348 117.84 48.1557V42.585C117.848 42.3808 117.789 42.1693 117.673 42.0016C116.769 40.6381 115.857 39.2819 114.96 37.9111C113.998 36.4528 113.043 34.9435 112.044 33.4779C111.993 33.3977 111.971 33.2956 111.92 33.2227C111.774 33.0258 111.643 32.8216 111.533 32.6102H112.262L113.239 32.5956Z" />
	<path d="M110.834 61.1417C111.643 61.1053 112.43 61.3969 113.021 61.9438C113.378 62.2646 113.641 62.6729 113.794 63.125C114.107 63.9052 114.093 64.7802 113.75 65.5531C113.619 65.8593 113.451 66.1437 113.247 66.4062C113.006 66.676 112.715 66.8947 112.394 67.0551C112.037 67.2739 111.636 67.3978 111.22 67.427C111.074 67.4635 110.928 67.4853 110.783 67.4999C110.104 67.478 109.448 67.2666 108.887 66.8947C108.26 66.4281 107.822 65.7427 107.669 64.9771C107.589 64.6271 107.574 64.2625 107.611 63.9052C107.662 63.351 107.873 62.8261 108.216 62.3886C108.42 62.1115 108.668 61.8636 108.945 61.6594C109.507 61.2948 110.163 61.1126 110.834 61.1417ZM110.899 66.4281C111.06 66.4426 111.22 66.4426 111.38 66.4281C111.738 66.2968 112.051 66.0854 112.306 65.8083C112.649 65.451 112.846 64.9771 112.868 64.4812C112.919 64.0364 112.817 63.5917 112.576 63.2125C112.357 62.8042 112.007 62.4834 111.577 62.3011C111.278 62.1917 110.958 62.1407 110.637 62.1552C110.294 62.1771 109.966 62.2792 109.674 62.4542C109.404 62.6146 109.186 62.8406 109.04 63.1177C108.865 63.3729 108.763 63.6646 108.734 63.9708C108.683 64.3062 108.704 64.6489 108.799 64.9698C108.923 65.4073 109.178 65.7937 109.528 66.0854C109.922 66.377 110.418 66.501 110.899 66.4281Z" />
	<path d="M177.324 61.1411C178.775 61.0755 180.066 62.0307 180.423 63.4379C180.481 63.664 180.489 63.8973 180.554 64.1233C180.591 64.3931 180.561 64.6702 180.474 64.9254C180.408 65.3264 180.263 65.7056 180.029 66.041C179.614 66.6608 178.994 67.1201 178.279 67.3389C178.126 67.3972 177.966 67.4191 177.805 67.4191C177.711 67.4045 177.608 67.4191 177.521 67.4628C177.448 67.4847 177.375 67.4847 177.302 67.4628C176.799 67.4264 176.311 67.3024 175.844 67.1128C175.02 66.7045 174.429 65.9389 174.247 65.0348C174.116 64.4441 174.145 63.8244 174.327 63.2483C174.619 62.2859 175.37 61.5348 176.332 61.2432C176.653 61.1338 176.989 61.0973 177.324 61.1411ZM175.275 64.2254C175.239 64.7212 175.377 65.217 175.662 65.6254C175.946 66.041 176.383 66.3254 176.879 66.4201C177.477 66.5587 178.112 66.4201 178.6 66.041C178.863 65.8368 179.067 65.5743 179.205 65.2681C179.409 64.8306 179.468 64.3421 179.38 63.8681C179.3 63.4598 179.11 63.0733 178.833 62.7598C178.454 62.3296 177.9 62.0963 177.324 62.1109C176.777 62.0963 176.245 62.315 175.866 62.7161C175.457 63.1098 175.246 63.664 175.275 64.2254Z" />
	<path d="M182.539 64.2696V61.4624C182.539 61.1999 182.539 61.2145 182.765 61.2145C183.684 61.2145 184.603 61.2145 185.521 61.2145C186.112 61.1999 186.673 61.4405 187.082 61.8634C187.388 62.1624 187.548 62.578 187.526 63.0009V63.4092C187.526 63.9707 187.22 64.4884 186.724 64.7509C186.622 64.8238 186.52 64.8821 186.404 64.9259C186.105 65.0061 186.112 65.0571 186.301 65.3196L187.687 67.2373L187.731 67.2956H187.636H186.659C186.528 67.3029 186.411 67.2373 186.345 67.1279C186.032 66.6977 185.725 66.2675 185.434 65.83C185.368 65.7352 185.295 65.655 185.23 65.5675C185.164 65.48 185.098 65.2613 184.989 65.2175C184.821 65.1884 184.639 65.1884 184.471 65.2175H184.165C183.983 65.1884 183.793 65.1884 183.611 65.2175C183.611 65.4071 183.611 65.5894 183.611 65.779V67.1352C183.611 67.2737 183.567 67.3102 183.443 67.3029H182.714C182.59 67.3029 182.539 67.3029 182.546 67.1352V64.2186L182.539 64.2696ZM183.626 63.2197V64.0071C183.626 64.2696 183.626 64.2405 183.844 64.2405H185.383C185.645 64.2405 185.9 64.1603 186.112 63.9998C186.535 63.6863 186.63 63.0957 186.338 62.6655C186.141 62.3811 185.82 62.2134 185.47 62.2061C184.902 62.2061 184.318 62.2061 183.742 62.2061C183.662 62.2061 183.633 62.2499 183.633 62.3228L183.626 63.2197Z" />
	<path d="M154.502 64.2622V61.4258C154.502 61.2436 154.502 61.2217 154.706 61.2217C155.639 61.2217 156.573 61.2217 157.513 61.2217C158.024 61.229 158.52 61.404 158.913 61.7248C159.183 61.9435 159.365 62.2498 159.438 62.5925C159.54 62.9716 159.54 63.38 159.438 63.7591C159.387 63.9779 159.292 64.1747 159.147 64.3424C158.891 64.6487 158.556 64.8747 158.17 64.9841C158.046 64.9841 158.119 65.0643 158.17 65.1008L158.673 65.8299L159.642 67.2007C159.686 67.2663 159.642 67.3247 159.57 67.3247H158.52C158.461 67.332 158.403 67.2955 158.374 67.2445C157.958 66.632 157.521 66.0414 157.105 65.4289C157.018 65.2758 156.85 65.1883 156.675 65.2028H155.734C155.618 65.2028 155.581 65.2539 155.581 65.356V67.1715C155.581 67.259 155.581 67.332 155.435 67.3247H154.706C154.56 67.3247 154.546 67.259 154.546 67.1497V64.2331L154.502 64.2622ZM155.552 63.2268V64.0872C155.552 64.1966 155.552 64.2477 155.705 64.2477H157.375C157.718 64.2477 158.038 64.0727 158.221 63.781C158.381 63.5623 158.432 63.2779 158.366 63.0154C158.264 62.5487 157.849 62.2206 157.375 62.2206C156.799 62.1769 156.215 62.2206 155.639 62.2206C155.559 62.2206 155.53 62.2644 155.53 62.3373L155.552 63.2268Z" />
	<path d="M146.496 61.1566C146.876 61.1056 147.255 61.2222 147.546 61.4701C147.86 61.6743 148.057 62.0243 148.064 62.4034V62.7534C148.057 63.1326 147.882 63.4899 147.583 63.7305C147.371 63.9274 147.124 64.0805 146.854 64.1753C146.774 64.1753 146.737 64.2701 146.795 64.2992C147.08 64.4596 147.204 64.7586 147.437 64.9701C147.867 65.3711 147.736 65.32 148.042 64.8753C148.166 64.6638 148.276 64.4451 148.37 64.219C148.414 64.1169 148.472 64.1169 148.567 64.1753C148.662 64.2336 148.954 64.3794 149.151 64.4888C149.347 64.5982 149.245 64.6055 149.187 64.693C148.976 65.094 148.728 65.4805 148.458 65.845C148.385 65.9252 148.458 65.9836 148.509 66.0346L149.238 66.7638C149.347 66.8731 149.347 66.9388 149.238 66.9898C149.129 67.0408 148.983 67.2304 148.815 67.2888C148.647 67.3471 148.684 67.4492 148.618 67.4492C148.553 67.4492 148.465 67.3398 148.4 67.2669C148.217 67.0919 148.05 66.9169 147.867 66.7346C147.685 66.5523 147.758 66.6763 147.685 66.7346C147.627 66.7638 147.576 66.8002 147.532 66.8367C146.737 67.4565 145.665 67.5804 144.754 67.1575C144.207 66.8804 143.864 66.3117 143.872 65.6992C143.842 65.1596 144.083 64.6346 144.506 64.2992C144.681 64.168 144.87 64.0513 145.067 63.9492C145.133 63.9055 145.162 63.8617 145.067 63.7815C144.863 63.519 144.725 63.2128 144.681 62.8847C144.623 62.5784 144.659 62.2576 144.79 61.9732C144.973 61.5868 145.308 61.2951 145.724 61.1785C145.971 61.0983 146.241 61.091 146.496 61.1566ZM144.98 65.6846C145.024 65.9107 145.133 66.1221 145.293 66.2825C145.498 66.4794 145.775 66.5815 146.059 66.5669C146.438 66.5377 146.803 66.3846 147.08 66.1221C147.16 66.0565 147.175 66.0054 147.08 65.9252C146.73 65.6044 146.424 65.269 146.103 64.9409L145.775 64.6274L145.344 64.9044C145.293 64.9482 145.25 64.9919 145.213 65.043C145.082 65.2325 145.002 65.4513 144.98 65.6846ZM145.745 62.7024C145.738 63.0524 145.906 63.3878 146.19 63.5993C146.19 63.5993 146.241 63.5993 146.285 63.5993C146.599 63.5045 146.868 63.3076 147.058 63.0378C147.24 62.7024 147.138 62.2868 146.825 62.0753H146.774C146.431 61.9003 146.015 62.017 145.818 62.3451C145.753 62.4618 145.724 62.6003 145.731 62.7316L145.745 62.7024Z" />
	<path d="M122.025 64.2477V61.4113C122.025 61.229 122.025 61.2217 122.2 61.2217H126.408C126.553 61.2217 126.575 61.28 126.568 61.404V62.0456C126.568 62.1914 126.517 62.206 126.393 62.206H123.301C123.207 62.206 123.156 62.206 123.156 62.3373V63.657C123.156 63.7737 123.214 63.8102 123.323 63.8029C123.433 63.7956 123.498 63.8029 123.586 63.8029H125.963C126.211 63.8029 126.196 63.8029 126.189 64.0216C126.218 64.2622 126.218 64.5101 126.189 64.7508H123.411C123.214 64.7508 123.207 64.7508 123.207 64.9622V66.0414C123.207 66.4059 123.207 66.3257 123.484 66.3257H126.553C126.626 66.3184 126.692 66.3622 126.699 66.4351C126.699 66.4497 126.699 66.4643 126.699 66.4861V67.2736C126.444 67.3174 126.174 67.3174 125.919 67.2736H122.222C122.142 67.2736 122.106 67.2736 122.113 67.1643V64.2477H122.025Z" />
	<path d="M161.531 64.2485V61.4486C161.531 61.1788 161.531 61.208 161.743 61.208H165.855C166.037 61.208 166.067 61.208 166.067 61.4121C166.067 61.6163 166.067 61.8204 166.067 62.0173C166.067 62.2142 166.067 62.1923 165.899 62.1923H162.749C162.574 62.1923 162.567 62.1923 162.567 62.3819V63.5923C162.567 63.7746 162.567 63.7819 162.756 63.7819H165.316C165.695 63.7819 165.695 63.7818 165.695 64.1318V64.2777C165.695 64.4308 165.768 64.6277 165.651 64.7079C165.534 64.7881 165.367 64.7079 165.221 64.7079H162.8C162.603 64.7079 162.603 64.7079 162.603 64.9193V66.086C162.603 66.2901 162.603 66.3047 162.836 66.3047H165.702C166.169 66.3047 166.161 66.3047 166.139 66.7641C166.139 66.9318 166.227 67.1578 166.096 67.2599C165.964 67.362 165.775 67.2599 165.614 67.2599H161.641C161.568 67.2599 161.531 67.2599 161.531 67.1505V64.2339V64.2485Z" />
	<path d="M105.555 64.277V67.1499C105.555 67.3394 105.555 67.3394 105.372 67.3394C105.19 67.3394 104.92 67.3394 104.694 67.3394C104.468 67.3394 104.497 67.3394 104.497 67.128V64.8603C104.505 64.8166 104.468 64.7801 104.424 64.7728H101.756C101.595 64.7728 101.544 64.7364 101.544 64.977V67.077C101.544 67.3394 101.544 67.3394 101.311 67.3322H100.502C100.458 67.0769 100.458 66.8072 100.502 66.552V61.3823C100.502 61.2948 100.502 61.2219 100.64 61.2292H101.369C101.515 61.2292 101.53 61.2802 101.53 61.4042V63.7083C101.53 63.7958 101.573 63.7958 101.624 63.7958H104.315C104.439 63.7958 104.49 63.7958 104.49 63.6281V61.5281C104.49 61.2365 104.49 61.2292 104.76 61.2437C105.015 61.2 105.277 61.2 105.533 61.2437V64.2406L105.555 64.277Z" />
	<path d="M136.85 67.4195C136.157 67.4487 135.472 67.2664 134.896 66.8872C134.728 66.7779 134.568 66.6612 134.415 66.5372C134.356 66.4935 134.342 66.457 134.415 66.3914C134.451 66.3258 134.495 66.2602 134.546 66.2091C134.597 66.1581 134.648 66.0925 134.699 66.0487C134.75 66.005 134.859 65.6987 135.013 65.6987C135.166 65.6987 135.26 65.8737 135.392 65.9758C135.858 66.3258 136.427 66.5081 137.01 66.5008C137.324 66.5227 137.63 66.3987 137.842 66.1727C138.104 65.8956 138.104 65.4581 137.842 65.181C137.747 65.0935 137.637 65.0352 137.513 65.006C137.244 64.9112 136.974 64.8383 136.704 64.7727C136.34 64.6852 135.975 64.5758 135.625 64.4446C135.231 64.2988 134.91 63.9998 134.735 63.6134C134.604 63.2925 134.575 62.9352 134.655 62.5925C134.808 61.878 135.392 61.3311 136.114 61.2145C136.595 61.0978 137.091 61.0978 137.572 61.2145C138.024 61.3311 138.454 61.528 138.833 61.8051C138.921 61.8634 138.913 61.8999 138.833 61.9728L138.374 62.6436C138.374 62.6873 138.316 62.7092 138.265 62.6436C138.213 62.578 138.155 62.5853 138.104 62.5488C137.856 62.3519 137.565 62.2134 137.251 62.1405C136.879 62.0311 136.485 62.0311 136.114 62.1405C135.851 62.2426 135.676 62.4759 135.647 62.753C135.632 63.0009 135.771 63.2415 135.997 63.3509C136.325 63.5259 136.682 63.6498 137.047 63.73C137.528 63.8029 137.995 63.9852 138.403 64.255C138.731 64.4738 138.957 64.8165 139.03 65.2102C139.212 66.1945 138.563 67.1352 137.579 67.3174H137.572C137.477 67.3247 137.382 67.3247 137.287 67.3174L136.85 67.4195Z" />
	<path d="M197.989 67.4202C197.121 67.4713 196.268 67.1869 195.605 66.6327L195.444 66.5379C195.408 66.5379 195.372 66.4796 195.444 66.4213C195.634 66.1952 195.824 65.9619 196.006 65.6921C196.064 65.6192 196.086 65.6921 196.115 65.6921C196.363 65.8963 196.633 66.064 196.925 66.2025C197.282 66.3702 197.676 66.4577 198.069 66.4432C198.368 66.4432 198.653 66.3265 198.871 66.1223C199.083 65.9036 199.112 65.5609 198.937 65.313C198.886 65.2619 198.835 65.2182 198.769 65.1817C198.594 65.0723 198.405 64.9849 198.208 64.9338C197.654 64.8099 197.107 64.6422 196.575 64.4307C196.101 64.263 195.758 63.8401 195.7 63.337C195.583 63.0453 195.583 62.7245 195.7 62.4328C195.773 62.0901 195.984 61.7912 196.283 61.6089C196.648 61.3391 197.092 61.186 197.544 61.1714C198.04 61.1641 198.536 61.237 199.003 61.3974C199.28 61.5214 199.55 61.6672 199.805 61.8276C199.914 61.8714 199.929 61.9808 199.856 62.0828L199.418 62.6734C199.367 62.7609 199.324 62.7464 199.251 62.6734C198.959 62.4401 198.616 62.2724 198.244 62.1995C197.902 62.0974 197.537 62.0974 197.194 62.1995C196.932 62.2797 196.75 62.5276 196.75 62.8047C196.706 63.0963 196.881 63.3807 197.165 63.4755C197.508 63.6141 197.858 63.7234 198.215 63.8036C198.733 63.913 199.229 64.1245 199.674 64.4234C199.797 64.5255 199.9 64.6567 199.965 64.8026C200.41 65.6557 200.082 66.7056 199.236 67.165C199.163 67.2015 199.09 67.2306 199.01 67.2525C198.689 67.391 198.339 67.4421 197.989 67.4202Z" />
	<path d="M170.193 67.413C169.639 67.4494 169.092 67.34 168.596 67.0921C168.29 66.9536 168.013 66.764 167.779 66.5307C167.728 66.4796 167.706 66.4286 167.779 66.3703C167.954 66.1661 168.129 65.9765 168.29 65.7724C168.37 65.6776 168.414 65.714 168.494 65.7724C168.793 66.064 169.165 66.2755 169.573 66.3849C169.77 66.4359 169.974 66.4724 170.178 66.5015C170.375 66.5161 170.572 66.4869 170.761 66.4213C171.017 66.3411 171.228 66.1661 171.352 65.9255C171.461 65.6265 171.338 65.2911 171.053 65.138C170.74 64.9557 170.39 64.8245 170.032 64.7661C169.566 64.6714 169.106 64.5109 168.683 64.2922C168.231 64.0807 167.954 63.6214 167.954 63.1256C167.932 62.8849 167.947 62.637 167.998 62.3964C168.151 61.8495 168.574 61.4266 169.114 61.2662C169.617 61.0985 170.156 61.0693 170.681 61.1714C171.206 61.2589 171.702 61.4704 172.14 61.7766C172.242 61.8423 172.293 61.9006 172.176 62.0245C172.016 62.2068 171.877 62.411 171.746 62.6152C171.702 62.6954 171.68 62.6152 171.636 62.6152C171.571 62.586 171.505 62.5495 171.454 62.4985C170.944 62.1412 170.317 61.9881 169.697 62.0756C169.318 62.0756 169.012 62.3818 169.012 62.761C169.012 62.8922 169.048 63.0162 169.114 63.1256C169.238 63.3224 169.442 63.461 169.675 63.5047L170.966 63.8839C171.279 63.986 171.578 64.1245 171.855 64.3068C172.212 64.5328 172.424 64.9338 172.417 65.3568C172.446 65.5974 172.424 65.8453 172.366 66.0859C172.249 66.589 171.892 67.0119 171.41 67.2015C171.228 67.2744 171.046 67.34 170.856 67.3911C170.638 67.4275 170.411 67.4348 170.193 67.413Z" />
	<path d="M118.241 64.7798V67.1204C118.241 67.3464 118.241 67.3464 118.007 67.3391H117.22C117.184 67.0693 117.184 66.7923 117.22 66.5225V62.3955C117.227 62.3226 117.176 62.2497 117.096 62.2424C117.089 62.2424 117.074 62.2424 117.067 62.2424H115.703C115.565 62.2424 115.353 62.3226 115.28 62.2424C115.208 62.1622 115.28 61.9799 115.28 61.8413C115.28 61.7028 115.28 61.5861 115.28 61.4622C115.28 61.3382 115.339 61.3018 115.455 61.3018H120.1C120.239 61.3018 120.275 61.3455 120.268 61.4695V62.1111C120.268 62.2424 120.268 62.2934 120.1 62.2861H118.554C118.314 62.2861 118.299 62.2497 118.299 62.5267V64.8454L118.241 64.7798Z" />
	<path d="M192.126 64.7877V67.1647C192.126 67.2814 192.126 67.347 191.966 67.347H191.237C191.113 67.347 191.084 67.296 191.091 67.1866C191.098 67.0991 191.098 67.0043 191.091 66.9168V62.3961C191.091 62.1554 191.091 62.1773 190.865 62.1773H189.283C189.166 62.1773 189.122 62.1773 189.13 62.0242C189.108 61.7544 189.108 61.4846 189.13 61.2148H193.767C194.073 61.2148 194.073 61.2148 194.081 61.5357V62.068C194.081 62.1627 194.044 62.1992 193.949 62.1992H192.199C192.141 62.1992 192.105 62.1992 192.105 62.2867V62.5492C192.126 63.3002 192.126 64.0512 192.126 64.7877Z" />
	<path d="M128.596 64.2768V61.404C128.596 61.229 128.596 61.2217 128.778 61.2217H129.609C129.689 61.2217 129.726 61.2217 129.719 61.3383V66.2018C129.719 66.2893 129.719 66.3695 129.857 66.3622H132.694C132.912 66.3622 132.905 66.3622 132.898 66.5736V67.2153C132.898 67.3101 132.898 67.3465 132.766 67.3465H128.975C128.625 67.3465 128.625 67.3465 128.625 66.9965L128.596 64.2768Z" />
	<path d="M228.104 57.5984H228.176C228.242 57.5984 228.315 57.5984 228.381 57.5984C228.286 57.5984 228.176 57.6932 228.111 57.54L228.104 57.5984Z" />
	</svg>
